SplineFontDB: 3.0
FontName: MetroPass
FullName: MetroPass
FamilyName: MetroPass
Weight: Regular
Copyright: (c) Copyright 1997-2015, Terrence Curran http://www.grilledcheese.com
Version: 2015-05-12
ItalicAngle: 0
UnderlinePosition: -123
UnderlineWidth: 20
Ascent: 800
Descent: 200
InvalidEm: 0
sfntRevision: 0x00010000
LayerCount: 2
Layer: 0 0 "Back" 1
Layer: 1 0 "Fore" 0
XUID: [1021 270 -1463357204 10421752]
FSType: 0
OS2Version: 0
OS2_WeightWidthSlopeOnly: 0
OS2_UseTypoMetrics: 1
CreationTime: 1218423906
ModificationTime: 1428869123
PfmFamily: 81
TTFWeight: 400
TTFWidth: 5
LineGap: 0
VLineGap: 0
Panose: 0 0 4 0 0 0 0 0 0 0
OS2TypoAscent: 827
OS2TypoAOffset: 0
OS2TypoDescent: -379
OS2TypoDOffset: 0
OS2TypoLinegap: 0
OS2WinAscent: 827
OS2WinAOffset: 0
OS2WinDescent: 379
OS2WinDOffset: 0
HheadAscent: 827
HheadAOffset: 0
HheadDescent: -379
HheadDOffset: 0
OS2SubXSize: 700
OS2SubYSize: 650
OS2SubXOff: 0
OS2SubYOff: 143
OS2SupXSize: 700
OS2SupYSize: 650
OS2SupXOff: 0
OS2SupYOff: 453
OS2StrikeYSize: 50
OS2StrikeYPos: 259
OS2CapHeight: 0
OS2XHeight: 0
OS2Vendor: 'Pyrs'
OS2UnicodeRanges: 00000000.00000000.00000000.00000000
Lookup: 258 0 0 "'kern' Horizontal Kerning in Latin lookup 0" { "'kern' Horizontal Kerning in Latin lookup 0 subtable"  } ['kern' ('DFLT' <'dflt' > 'latn' <'dflt' > ) ]
MarkAttachClasses: 1
DEI: 91125
TtTable: prep
NPUSHB
 21
 13
 13
 12
 12
 11
 11
 10
 10
 9
 9
 8
 8
 3
 3
 2
 2
 1
 1
 0
 0
 1
SCANTYPE
PUSHW_1
 511
SCANCTRL
RCVT
ROUND[Grey]
WCVTP
RCVT
ROUND[Grey]
WCVTP
RCVT
ROUND[Grey]
WCVTP
RCVT
ROUND[Grey]
WCVTP
RCVT
ROUND[Grey]
WCVTP
RCVT
ROUND[Grey]
WCVTP
RCVT
ROUND[Grey]
WCVTP
RCVT
ROUND[Grey]
WCVTP
RCVT
ROUND[Grey]
WCVTP
RCVT
ROUND[Grey]
WCVTP
PUSHB_4
 5
 4
 70
 0
CALL
PUSHB_4
 7
 6
 70
 0
CALL
PUSHB_2
 4
 4
RCVT
ROUND[Grey]
WCVTP
PUSHB_2
 6
 6
RCVT
ROUND[Grey]
WCVTP
EndTTInstrs
TtTable: fpgm
NPUSHB
 1
 0
FDEF
SROUND
RCVT
DUP
PUSHB_1
 3
CINDEX
RCVT
SWAP
SUB
ROUND[Grey]
RTG
SWAP
ROUND[Grey]
ADD
WCVTP
ENDF
EndTTInstrs
ShortTable: cvt  18
  -377
  -3

StartChar: .notdef
Encoding: 65536 -1 0
Width: 500
Flags: W
HStem: 0 63<125 375> 765 62<125 375>
VStem: 63 62<63 765> 375 63<63 765>
LayerCount: 2
Back
Fore
SplineSet
63 0 m 1
 63 827 l 1
 438 827 l 1
 438 0 l 1
 63 0 l 1
125 63 m 1
 375 63 l 1
 375 765 l 1
 125 765 l 1
 125 63 l 1
EndSplineSet
Validated: 1
EndChar

StartChar: exclam
Encoding: 33 33 4
Width: 324
Flags: W
HStem: 650 26<29 122 214 306> 756 44<96 130 205 236>
VStem: 122 74<414 521 524 615> 130 75<679 756> 145 46<275 320> 156 23<82 214 229 266> 199 15<410 619>
LayerCount: 2
Back
Fore
SplineSet
214 338 m 1xc2
 192 320 l 1
 191 275 l 1xca
 179 266 l 1
 179 229 l 1
 174 214 l 1
 170 -50 l 1
 162 214 l 1
 156 229 l 1
 156 266 l 1xc4
 145 275 l 1xc8
 144 320 l 1
 122 338 l 1
 122 650 l 1xe0
 1 650 l 1
 29 676 l 1
 116 676 l 1
 130 679 l 1
 130 756 l 1
 96 756 l 1
 68 800 l 1
 264 800 l 1
 236 756 l 1
 205 756 l 1
 205 679 l 1xd0
 220 676 l 1
 306 676 l 1
 335 650 l 1
 214 650 l 1
 214 338 l 1xc2
196 524 m 1xe2
 180 524 l 1
 180 521 l 1
 196 521 l 1
 196 414 l 1
 169 414 l 1
 169 410 l 1
 199 410 l 1
 199 619 l 1
 166 619 l 1
 166 615 l 1
 196 615 l 1
 196 524 l 1xe2
EndSplineSet
Validated: 1
EndChar

StartChar: quotedbl
Encoding: 34 34 5
Width: 804
Flags: W
VStem: -5 10<479 687> 180 10<450 584> 202 10<110 318> 366 10<479 687> 388 10<78 215> 416 10<482 690> 572 10<110 318> 786 10<482 690>
LayerCount: 2
Back
Fore
SplineSet
185 363 m 1
 -5 473 l 1
 -5 693 l 1
 185 803 l 1
 376 693 l 1
 376 473 l 1
 185 363 l 1
185 375 m 1
 366 479 l 1
 366 687 l 1
 185 791 l 1
 5 687 l 1
 5 479 l 1
 185 375 l 1
392 -6 m 1
 202 104 l 1
 202 324 l 1
 392 434 l 1
 582 324 l 1
 582 104 l 1
 392 -6 l 1
392 6 m 1
 572 110 l 1
 572 318 l 1
 392 422 l 1
 212 318 l 1
 212 110 l 1
 392 6 l 1
606 366 m 1
 416 476 l 1
 416 696 l 1
 606 806 l 1
 796 696 l 1
 796 476 l 1
 606 366 l 1
606 378 m 1
 786 482 l 1
 786 690 l 1
 606 794 l 1
 426 690 l 1
 426 482 l 1
 606 378 l 1
180 450 m 1
 180 584 l 1
 31 668 l 1
 35 676 l 1
 190 589 l 1
 190 450 l 1
 180 450 l 1
764 671 m 1
 605 578 l 1
 460 664 l 1
 466 672 l 1
 605 590 l 1
 758 679 l 1
 764 671 l 1
536 297 m 1
 398 215 l 1
 398 78 l 1
 388 78 l 1
 388 221 l 1
 530 305 l 1
 536 297 l 1
EndSplineSet
Validated: 1
EndChar

StartChar: numbersign
Encoding: 35 35 6
Width: 799
Flags: W
HStem: 780 20G<571.421 640.579>
VStem: 0 180<476 584> 190 181<476 589> 207 181<107 221> 398 179<107 215>
LayerCount: 2
Back
Fore
SplineSet
791 479 m 1xc8
 606 372 l 1
 421 479 l 1
 421 693 l 1
 606 800 l 1
 791 693 l 1
 791 479 l 1xc8
371 476 m 1xe8
 185 369 l 1
 0 476 l 1
 0 690 l 1
 185 797 l 1
 371 690 l 1
 371 476 l 1xe8
577 107 m 1
 392 0 l 1
 207 107 l 1
 207 321 l 1xd8
 392 428 l 1
 577 321 l 1
 577 107 l 1
764 671 m 1
 758 679 l 1
 605 590 l 1
 466 672 l 1
 460 664 l 1
 605 578 l 1
 764 671 l 1
190 450 m 1xe8
 190 589 l 1
 35 676 l 1
 31 668 l 1
 180 584 l 1
 180 450 l 1
 190 450 l 1xe8
536 297 m 1
 530 305 l 1
 388 221 l 1
 388 78 l 1xd8
 398 78 l 1
 398 215 l 1
 536 297 l 1
EndSplineSet
Validated: 1
EndChar

StartChar: dollar
Encoding: 36 36 7
Width: 799
Flags: W
HStem: 780 20G<571.421 640.579>
VStem: 0 178<476 579> 188 183<476 577> 207 177<107 207> 394 183<107 205> 421 180<479 589> 611 180<479 587>
LayerCount: 2
Back
Fore
SplineSet
791 479 m 1xc6
 606 372 l 1
 421 479 l 1
 421 693 l 1
 606 800 l 1
 791 693 l 1
 791 479 l 1xc6
371 476 m 1xe2
 185 369 l 1
 0 476 l 1
 0 690 l 1
 185 797 l 1
 371 690 l 1
 371 476 l 1xe2
577 107 m 1xda
 392 0 l 1
 207 107 l 1
 207 321 l 1
 392 428 l 1
 577 321 l 1
 577 107 l 1xda
766 677 m 1
 761 686 l 1
 608 596 l 1
 468 679 l 1
 463 670 l 1
 601 589 l 1
 601 450 l 1xc6
 611 450 l 1
 611 587 l 1
 766 677 l 1
344 668 m 1
 338 676 l 1
 185 587 l 1
 46 669 l 1
 40 661 l 1
 178 579 l 1
 178 440 l 1
 188 440 l 1
 188 577 l 1xe2
 344 668 l 1
549 295 m 1
 544 304 l 1
 391 214 l 1
 251 297 l 1
 246 288 l 1
 384 207 l 1
 384 67 l 1
 394 67 l 1
 394 205 l 1xda
 549 295 l 1
EndSplineSet
Validated: 1
EndChar

StartChar: percent
Encoding: 37 37 8
Width: 804
Flags: W
VStem: -5 10<479 687> 180 10<450 584> 202 10<110 318> 366 10<479 687> 388 10<78 215> 416 10<482 690> 572 10<110 318> 786 10<482 690>
LayerCount: 2
Back
Fore
SplineSet
185 363 m 1
 -5 473 l 1
 -5 693 l 1
 185 803 l 1
 376 693 l 1
 376 473 l 1
 185 363 l 1
185 375 m 1
 366 479 l 1
 366 687 l 1
 185 791 l 1
 5 687 l 1
 5 479 l 1
 185 375 l 1
392 -6 m 1
 202 104 l 1
 202 324 l 1
 392 434 l 1
 582 324 l 1
 582 104 l 1
 392 -6 l 1
392 6 m 1
 572 110 l 1
 572 318 l 1
 392 422 l 1
 212 318 l 1
 212 110 l 1
 392 6 l 1
606 366 m 1
 416 476 l 1
 416 696 l 1
 606 806 l 1
 796 696 l 1
 796 476 l 1
 606 366 l 1
606 378 m 1
 786 482 l 1
 786 690 l 1
 606 794 l 1
 426 690 l 1
 426 482 l 1
 606 378 l 1
180 450 m 1
 180 584 l 1
 31 668 l 1
 35 676 l 1
 190 589 l 1
 190 450 l 1
 180 450 l 1
764 671 m 1
 605 578 l 1
 460 664 l 1
 466 672 l 1
 605 590 l 1
 758 679 l 1
 764 671 l 1
536 297 m 1
 398 215 l 1
 398 78 l 1
 388 78 l 1
 388 221 l 1
 530 305 l 1
 536 297 l 1
EndSplineSet
Validated: 1
EndChar

StartChar: ampersand
Encoding: 38 38 9
Width: 799
Flags: W
HStem: 780 20G<571.421 640.579>
VStem: 0 180<476 584> 190 181<476 589> 207 181<107 221> 398 179<107 215>
LayerCount: 2
Back
Fore
SplineSet
791 479 m 1xc8
 606 372 l 1
 421 479 l 1
 421 693 l 1
 606 800 l 1
 791 693 l 1
 791 479 l 1xc8
371 476 m 1xe8
 185 369 l 1
 0 476 l 1
 0 690 l 1
 185 797 l 1
 371 690 l 1
 371 476 l 1xe8
577 107 m 1
 392 0 l 1
 207 107 l 1
 207 321 l 1xd8
 392 428 l 1
 577 321 l 1
 577 107 l 1
764 671 m 1
 758 679 l 1
 605 590 l 1
 466 672 l 1
 460 664 l 1
 605 578 l 1
 764 671 l 1
190 450 m 1xe8
 190 589 l 1
 35 676 l 1
 31 668 l 1
 180 584 l 1
 180 450 l 1
 190 450 l 1xe8
536 297 m 1
 530 305 l 1
 388 221 l 1
 388 78 l 1xd8
 398 78 l 1
 398 215 l 1
 536 297 l 1
EndSplineSet
Validated: 1
EndChar

StartChar: quotesingle
Encoding: 39 39 10
Width: 799
Flags: W
HStem: 780 20G<571.421 640.579>
VStem: 0 178<476 579> 188 183<476 577> 207 177<107 207> 394 183<107 205> 421 180<479 589> 611 180<479 587>
LayerCount: 2
Back
Fore
SplineSet
791 479 m 1xc6
 606 372 l 1
 421 479 l 1
 421 693 l 1
 606 800 l 1
 791 693 l 1
 791 479 l 1xc6
371 476 m 1xe2
 185 369 l 1
 0 476 l 1
 0 690 l 1
 185 797 l 1
 371 690 l 1
 371 476 l 1xe2
577 107 m 1xda
 392 0 l 1
 207 107 l 1
 207 321 l 1
 392 428 l 1
 577 321 l 1
 577 107 l 1xda
766 677 m 1
 761 686 l 1
 608 596 l 1
 468 679 l 1
 463 670 l 1
 601 589 l 1
 601 450 l 1xc6
 611 450 l 1
 611 587 l 1
 766 677 l 1
344 668 m 1
 338 676 l 1
 185 587 l 1
 46 669 l 1
 40 661 l 1
 178 579 l 1
 178 440 l 1
 188 440 l 1
 188 577 l 1xe2
 344 668 l 1
549 295 m 1
 544 304 l 1
 391 214 l 1
 251 297 l 1
 246 288 l 1
 384 207 l 1
 384 67 l 1
 394 67 l 1
 394 205 l 1xda
 549 295 l 1
EndSplineSet
Validated: 1
EndChar

StartChar: parenleft
Encoding: 40 40 11
Width: 804
Flags: W
VStem: -5 10<479 687> 180 10<450 584> 202 10<110 318> 366 10<479 687> 388 10<78 215> 416 10<482 690> 572 10<110 318> 786 10<482 690>
LayerCount: 2
Back
Fore
SplineSet
185 363 m 1
 -5 473 l 1
 -5 693 l 1
 185 803 l 1
 376 693 l 1
 376 473 l 1
 185 363 l 1
185 375 m 1
 366 479 l 1
 366 687 l 1
 185 791 l 1
 5 687 l 1
 5 479 l 1
 185 375 l 1
392 -6 m 1
 202 104 l 1
 202 324 l 1
 392 434 l 1
 582 324 l 1
 582 104 l 1
 392 -6 l 1
392 6 m 1
 572 110 l 1
 572 318 l 1
 392 422 l 1
 212 318 l 1
 212 110 l 1
 392 6 l 1
606 366 m 1
 416 476 l 1
 416 696 l 1
 606 806 l 1
 796 696 l 1
 796 476 l 1
 606 366 l 1
606 378 m 1
 786 482 l 1
 786 690 l 1
 606 794 l 1
 426 690 l 1
 426 482 l 1
 606 378 l 1
180 450 m 1
 180 584 l 1
 31 668 l 1
 35 676 l 1
 190 589 l 1
 190 450 l 1
 180 450 l 1
764 671 m 1
 605 578 l 1
 460 664 l 1
 466 672 l 1
 605 590 l 1
 758 679 l 1
 764 671 l 1
536 297 m 1
 398 215 l 1
 398 78 l 1
 388 78 l 1
 388 221 l 1
 530 305 l 1
 536 297 l 1
EndSplineSet
Validated: 1
EndChar

StartChar: parenright
Encoding: 41 41 12
Width: 799
Flags: W
HStem: 780 20G<571.421 640.579>
VStem: 0 180<476 584> 190 181<476 589> 207 181<107 221> 398 179<107 215>
LayerCount: 2
Back
Fore
SplineSet
791 479 m 1xc8
 606 372 l 1
 421 479 l 1
 421 693 l 1
 606 800 l 1
 791 693 l 1
 791 479 l 1xc8
371 476 m 1xe8
 185 369 l 1
 0 476 l 1
 0 690 l 1
 185 797 l 1
 371 690 l 1
 371 476 l 1xe8
577 107 m 1
 392 0 l 1
 207 107 l 1
 207 321 l 1xd8
 392 428 l 1
 577 321 l 1
 577 107 l 1
764 671 m 1
 758 679 l 1
 605 590 l 1
 466 672 l 1
 460 664 l 1
 605 578 l 1
 764 671 l 1
190 450 m 1xe8
 190 589 l 1
 35 676 l 1
 31 668 l 1
 180 584 l 1
 180 450 l 1
 190 450 l 1xe8
536 297 m 1
 530 305 l 1
 388 221 l 1
 388 78 l 1xd8
 398 78 l 1
 398 215 l 1
 536 297 l 1
EndSplineSet
Validated: 1
EndChar

StartChar: asterisk
Encoding: 42 42 13
Width: 799
Flags: W
HStem: 780 20G<571.421 640.579>
VStem: 0 178<476 579> 188 183<476 577> 207 177<107 207> 394 183<107 205> 421 180<479 589> 611 180<479 587>
LayerCount: 2
Back
Fore
SplineSet
791 479 m 1xc6
 606 372 l 1
 421 479 l 1
 421 693 l 1
 606 800 l 1
 791 693 l 1
 791 479 l 1xc6
371 476 m 1xe2
 185 369 l 1
 0 476 l 1
 0 690 l 1
 185 797 l 1
 371 690 l 1
 371 476 l 1xe2
577 107 m 1xda
 392 0 l 1
 207 107 l 1
 207 321 l 1
 392 428 l 1
 577 321 l 1
 577 107 l 1xda
766 677 m 1
 761 686 l 1
 608 596 l 1
 468 679 l 1
 463 670 l 1
 601 589 l 1
 601 450 l 1xc6
 611 450 l 1
 611 587 l 1
 766 677 l 1
344 668 m 1
 338 676 l 1
 185 587 l 1
 46 669 l 1
 40 661 l 1
 178 579 l 1
 178 440 l 1
 188 440 l 1
 188 577 l 1xe2
 344 668 l 1
549 295 m 1
 544 304 l 1
 391 214 l 1
 251 297 l 1
 246 288 l 1
 384 207 l 1
 384 67 l 1
 394 67 l 1
 394 205 l 1xda
 549 295 l 1
EndSplineSet
Validated: 1
EndChar

StartChar: plus
Encoding: 43 43 14
Width: 804
Flags: W
VStem: -5 10<479 687> 180 10<450 584> 202 10<110 318> 366 10<479 687> 388 10<78 215> 416 10<482 690> 572 10<110 318> 786 10<482 690>
LayerCount: 2
Back
Fore
SplineSet
185 363 m 1
 -5 473 l 1
 -5 693 l 1
 185 803 l 1
 376 693 l 1
 376 473 l 1
 185 363 l 1
185 375 m 1
 366 479 l 1
 366 687 l 1
 185 791 l 1
 5 687 l 1
 5 479 l 1
 185 375 l 1
392 -6 m 1
 202 104 l 1
 202 324 l 1
 392 434 l 1
 582 324 l 1
 582 104 l 1
 392 -6 l 1
392 6 m 1
 572 110 l 1
 572 318 l 1
 392 422 l 1
 212 318 l 1
 212 110 l 1
 392 6 l 1
606 366 m 1
 416 476 l 1
 416 696 l 1
 606 806 l 1
 796 696 l 1
 796 476 l 1
 606 366 l 1
606 378 m 1
 786 482 l 1
 786 690 l 1
 606 794 l 1
 426 690 l 1
 426 482 l 1
 606 378 l 1
180 450 m 1
 180 584 l 1
 31 668 l 1
 35 676 l 1
 190 589 l 1
 190 450 l 1
 180 450 l 1
764 671 m 1
 605 578 l 1
 460 664 l 1
 466 672 l 1
 605 590 l 1
 758 679 l 1
 764 671 l 1
536 297 m 1
 398 215 l 1
 398 78 l 1
 388 78 l 1
 388 221 l 1
 530 305 l 1
 536 297 l 1
EndSplineSet
Validated: 1
EndChar

StartChar: comma
Encoding: 44 44 15
Width: 799
Flags: W
HStem: 780 20G<571.421 640.579>
VStem: 0 180<476 584> 190 181<476 589> 207 181<107 221> 398 179<107 215>
LayerCount: 2
Back
Fore
SplineSet
791 479 m 1xc8
 606 372 l 1
 421 479 l 1
 421 693 l 1
 606 800 l 1
 791 693 l 1
 791 479 l 1xc8
371 476 m 1xe8
 185 369 l 1
 0 476 l 1
 0 690 l 1
 185 797 l 1
 371 690 l 1
 371 476 l 1xe8
577 107 m 1
 392 0 l 1
 207 107 l 1
 207 321 l 1xd8
 392 428 l 1
 577 321 l 1
 577 107 l 1
764 671 m 1
 758 679 l 1
 605 590 l 1
 466 672 l 1
 460 664 l 1
 605 578 l 1
 764 671 l 1
190 450 m 1xe8
 190 589 l 1
 35 676 l 1
 31 668 l 1
 180 584 l 1
 180 450 l 1
 190 450 l 1xe8
536 297 m 1
 530 305 l 1
 388 221 l 1
 388 78 l 1xd8
 398 78 l 1
 398 215 l 1
 536 297 l 1
EndSplineSet
Validated: 1
EndChar

StartChar: hyphen
Encoding: 173 173 16
AltUni2: 002212.ffffffff.0
Width: 799
Flags: W
HStem: 780 20G<571.421 640.579>
VStem: 0 178<476 579> 188 183<476 577> 207 177<107 207> 394 183<107 205> 421 180<479 589> 611 180<479 587>
LayerCount: 2
Back
Fore
SplineSet
791 479 m 1xc6
 606 372 l 1
 421 479 l 1
 421 693 l 1
 606 800 l 1
 791 693 l 1
 791 479 l 1xc6
371 476 m 1xe2
 185 369 l 1
 0 476 l 1
 0 690 l 1
 185 797 l 1
 371 690 l 1
 371 476 l 1xe2
577 107 m 1xda
 392 0 l 1
 207 107 l 1
 207 321 l 1
 392 428 l 1
 577 321 l 1
 577 107 l 1xda
766 677 m 1
 761 686 l 1
 608 596 l 1
 468 679 l 1
 463 670 l 1
 601 589 l 1
 601 450 l 1xc6
 611 450 l 1
 611 587 l 1
 766 677 l 1
344 668 m 1
 338 676 l 1
 185 587 l 1
 46 669 l 1
 40 661 l 1
 178 579 l 1
 178 440 l 1
 188 440 l 1
 188 577 l 1xe2
 344 668 l 1
549 295 m 1
 544 304 l 1
 391 214 l 1
 251 297 l 1
 246 288 l 1
 384 207 l 1
 384 67 l 1
 394 67 l 1
 394 205 l 1xda
 549 295 l 1
EndSplineSet
Validated: 1
EndChar

StartChar: zero
Encoding: 48 48 19
Width: 934
Flags: W
HStem: 20 45<822.904 871.455> 99 38<151.69 193.811 366.595 475.602> 236 46<668 729 789 796> 291 45<-15 114 165 308> 377 45<106 124> 385 45<379 449.445> 493 20G<70 114.5 452 497>
VStem: 74 44<422.471 501> 201 45<140.496 212.479> 311 45<147.795 373.344> 456 45<431.154 508.077> 504 44<160.502 241.663> 632 45<421.466 460.359> 685 44<421.281 459.301> 773 48<65.5809 125.3> 789 41<282.935 348.658> 873 46<65.4313 134.745>
LayerCount: 2
Back
Fore
SplineSet
124 377 m 1xfbfc80
 16 377 l 1
 38 402 51 417 54 423 c 0
 67 442 74 460 74 477 c 0
 74 484 73 492 70 500 c 1
 113 513 l 1
 116 502 118 490 118 478 c 0
 118 459 114 440 106 422 c 1
 174 422 l 1
 165 336 l 1
 308 336 l 1
 308 291 l 1
 160 291 l 1
 148 189 l 2
 147 179 148 169 151 158 c 0
 154 144 160 137 169 137 c 0
 176 137 185 143 194 156 c 0
 199 162 201 171 201 182 c 0
 201 191 197 195 189 193 c 1
 178 237 l 1
 184 238 190 239 195 239 c 0
 229 239 246 219 246 178 c 0
 246 153 238 134 222 120 c 0
 206 106 184 99 157 99 c 0
 119 99 100 119 100 160 c 0
 100 171 101 183 104 196 c 2
 114 291 l 1
 -15 291 l 1
 -15 336 l 1
 119 336 l 1
 124 377 l 1xfbfc80
495 521 m 1
 499 509 501 497 501 485 c 0
 501 451 487 418 458 385 c 1
 379 385 l 1
 358 196 l 2
 357 192 356 188 356 185 c 0
 356 155 377 140 418 140 c 0
 453 140 479 152 496 175 c 0
 501 182 504 192 504 205 c 0
 504 214 502 221 497 224 c 0
 496 225 495 225 494 224 c 2
 483 268 l 1
 488 269 493 270 498 270 c 0
 515 270 527 262 536 247 c 0
 544 234 548 219 548 202 c 0
 548 181 543 164 533 150 c 0
 507 113 470 95 421 95 c 0
 392 95 367 102 346 117 c 0
 323 133 311 155 311 183 c 0
 311 185 312 192 313 204 c 2
 338 430 l 1
 437 430 l 1xf7fc80
 450 447 456 466 456 485 c 0
 456 493 455 500 452 507 c 1
 495 521 l 1
420 238 m 1
 422 237 l 1
 399 198 l 1
 383 207 375 220 375 236 c 0
 375 259 393 283 428 310 c 0
 446 323 473 341 508 366 c 0
 513 369 516 372 518 374 c 1
 552 344 l 1
 544 336 529 325 508 311 c 0
 482 294 466 283 461 279 c 0
 438 261 424 247 420 238 c 1
682 430 m 2
 684 439 685 445 685 450 c 0
 685 454 684 457 682 458 c 0
 680 459 677 460 671 461 c 1
 675 448 677 435 677 425 c 0
 677 424 677 422 677 421 c 1
 682 430 l 2
741 411 m 1
 776 282 l 1
 796 282 l 1
 791 296 789 309 789 321 c 0
 789 335 792 348 798 360 c 1
 839 343 l 1
 833 331 830 319 830 307 c 0
 830 280 847 253 856 236 c 1
 789 236 l 1xf3fd80
 823 114 l 1
 822 109 821 104 821 99 c 0xf3fe80
 821 80 832 65 846 65 c 0
 864 65 873 73 873 99 c 0
 873 108 870 114 863 115 c 1
 852 158 l 1
 859 160 865 161 870 161 c 0
 903 161 919 141 919 101 c 0
 919 47 889 20 830 20 c 0xf3fd80
 792 20 773 41 773 82 c 0xf3fe80
 773 91 774 102 777 113 c 1
 743 236 l 1
 648 236 l 1
 591 103 l 1
 550 121 l 1
 605 256 l 1
 605 281 l 1
 617 282 l 1
 654 366 l 1
 591 366 l 1
 618 398 632 420 632 431 c 0
 632 438 630 446 626 457 c 2
 610 500 l 1
 637 503 656 505 666 505 c 0
 708 505 729 487 729 451 c 0
 729 441 728 429 725 416 c 1
 722 411 l 1
 741 411 l 1
668 282 m 1
 729 282 l 1
 706 366 l 1
 704 366 l 1
 668 282 l 1
EndSplineSet
Validated: 1
EndChar

StartChar: five
Encoding: 53 53 24
Width: 804
Flags: W
VStem: -5 10<479 687> 180 10<450 584> 202 10<110 318> 366 10<479 687> 388 10<78 215> 416 10<482 690> 572 10<110 318> 786 10<482 690>
LayerCount: 2
Back
Fore
SplineSet
185 363 m 1
 -5 473 l 1
 -5 693 l 1
 185 803 l 1
 376 693 l 1
 376 473 l 1
 185 363 l 1
185 375 m 1
 366 479 l 1
 366 687 l 1
 185 791 l 1
 5 687 l 1
 5 479 l 1
 185 375 l 1
392 -6 m 1
 202 104 l 1
 202 324 l 1
 392 434 l 1
 582 324 l 1
 582 104 l 1
 392 -6 l 1
392 6 m 1
 572 110 l 1
 572 318 l 1
 392 422 l 1
 212 318 l 1
 212 110 l 1
 392 6 l 1
606 366 m 1
 416 476 l 1
 416 696 l 1
 606 806 l 1
 796 696 l 1
 796 476 l 1
 606 366 l 1
606 378 m 1
 786 482 l 1
 786 690 l 1
 606 794 l 1
 426 690 l 1
 426 482 l 1
 606 378 l 1
180 450 m 1
 180 584 l 1
 31 668 l 1
 35 676 l 1
 190 589 l 1
 190 450 l 1
 180 450 l 1
764 671 m 1
 605 578 l 1
 460 664 l 1
 466 672 l 1
 605 590 l 1
 758 679 l 1
 764 671 l 1
536 297 m 1
 398 215 l 1
 398 78 l 1
 388 78 l 1
 388 221 l 1
 530 305 l 1
 536 297 l 1
EndSplineSet
Validated: 1
EndChar

StartChar: six
Encoding: 54 54 25
Width: 799
Flags: W
HStem: 780 20G<571.421 640.579>
VStem: 0 180<476 584> 190 181<476 589> 207 181<107 221> 398 179<107 215>
LayerCount: 2
Back
Fore
SplineSet
791 479 m 1xc8
 606 372 l 1
 421 479 l 1
 421 693 l 1
 606 800 l 1
 791 693 l 1
 791 479 l 1xc8
371 476 m 1xe8
 185 369 l 1
 0 476 l 1
 0 690 l 1
 185 797 l 1
 371 690 l 1
 371 476 l 1xe8
577 107 m 1
 392 0 l 1
 207 107 l 1
 207 321 l 1xd8
 392 428 l 1
 577 321 l 1
 577 107 l 1
764 671 m 1
 758 679 l 1
 605 590 l 1
 466 672 l 1
 460 664 l 1
 605 578 l 1
 764 671 l 1
190 450 m 1xe8
 190 589 l 1
 35 676 l 1
 31 668 l 1
 180 584 l 1
 180 450 l 1
 190 450 l 1xe8
536 297 m 1
 530 305 l 1
 388 221 l 1
 388 78 l 1xd8
 398 78 l 1
 398 215 l 1
 536 297 l 1
EndSplineSet
Validated: 1
EndChar

StartChar: seven
Encoding: 55 55 26
Width: 799
Flags: W
HStem: 780 20G<571.421 640.579>
VStem: 0 178<476 579> 188 183<476 577> 207 177<107 207> 394 183<107 205> 421 180<479 589> 611 180<479 587>
LayerCount: 2
Back
Fore
SplineSet
791 479 m 1xc6
 606 372 l 1
 421 479 l 1
 421 693 l 1
 606 800 l 1
 791 693 l 1
 791 479 l 1xc6
371 476 m 1xe2
 185 369 l 1
 0 476 l 1
 0 690 l 1
 185 797 l 1
 371 690 l 1
 371 476 l 1xe2
577 107 m 1xda
 392 0 l 1
 207 107 l 1
 207 321 l 1
 392 428 l 1
 577 321 l 1
 577 107 l 1xda
766 677 m 1
 761 686 l 1
 608 596 l 1
 468 679 l 1
 463 670 l 1
 601 589 l 1
 601 450 l 1xc6
 611 450 l 1
 611 587 l 1
 766 677 l 1
344 668 m 1
 338 676 l 1
 185 587 l 1
 46 669 l 1
 40 661 l 1
 178 579 l 1
 178 440 l 1
 188 440 l 1
 188 577 l 1xe2
 344 668 l 1
549 295 m 1
 544 304 l 1
 391 214 l 1
 251 297 l 1
 246 288 l 1
 384 207 l 1
 384 67 l 1
 394 67 l 1
 394 205 l 1xda
 549 295 l 1
EndSplineSet
Validated: 1
EndChar

StartChar: eight
Encoding: 56 56 27
Width: 804
Flags: W
VStem: -5 10<479 687> 180 10<450 584> 202 10<110 318> 366 10<479 687> 388 10<78 215> 416 10<482 690> 572 10<110 318> 786 10<482 690>
LayerCount: 2
Back
Fore
SplineSet
185 363 m 1
 -5 473 l 1
 -5 693 l 1
 185 803 l 1
 376 693 l 1
 376 473 l 1
 185 363 l 1
185 375 m 1
 366 479 l 1
 366 687 l 1
 185 791 l 1
 5 687 l 1
 5 479 l 1
 185 375 l 1
392 -6 m 1
 202 104 l 1
 202 324 l 1
 392 434 l 1
 582 324 l 1
 582 104 l 1
 392 -6 l 1
392 6 m 1
 572 110 l 1
 572 318 l 1
 392 422 l 1
 212 318 l 1
 212 110 l 1
 392 6 l 1
606 366 m 1
 416 476 l 1
 416 696 l 1
 606 806 l 1
 796 696 l 1
 796 476 l 1
 606 366 l 1
606 378 m 1
 786 482 l 1
 786 690 l 1
 606 794 l 1
 426 690 l 1
 426 482 l 1
 606 378 l 1
180 450 m 1
 180 584 l 1
 31 668 l 1
 35 676 l 1
 190 589 l 1
 190 450 l 1
 180 450 l 1
764 671 m 1
 605 578 l 1
 460 664 l 1
 466 672 l 1
 605 590 l 1
 758 679 l 1
 764 671 l 1
536 297 m 1
 398 215 l 1
 398 78 l 1
 388 78 l 1
 388 221 l 1
 530 305 l 1
 536 297 l 1
EndSplineSet
Validated: 1
EndChar

StartChar: nine
Encoding: 57 57 28
Width: 799
Flags: W
HStem: 780 20G<571.421 640.579>
VStem: 0 180<476 584> 190 181<476 589> 207 181<107 221> 398 179<107 215>
LayerCount: 2
Back
Fore
SplineSet
791 479 m 1xc8
 606 372 l 1
 421 479 l 1
 421 693 l 1
 606 800 l 1
 791 693 l 1
 791 479 l 1xc8
371 476 m 1xe8
 185 369 l 1
 0 476 l 1
 0 690 l 1
 185 797 l 1
 371 690 l 1
 371 476 l 1xe8
577 107 m 1
 392 0 l 1
 207 107 l 1
 207 321 l 1xd8
 392 428 l 1
 577 321 l 1
 577 107 l 1
764 671 m 1
 758 679 l 1
 605 590 l 1
 466 672 l 1
 460 664 l 1
 605 578 l 1
 764 671 l 1
190 450 m 1xe8
 190 589 l 1
 35 676 l 1
 31 668 l 1
 180 584 l 1
 180 450 l 1
 190 450 l 1xe8
536 297 m 1
 530 305 l 1
 388 221 l 1
 388 78 l 1xd8
 398 78 l 1
 398 215 l 1
 536 297 l 1
EndSplineSet
Validated: 1
EndChar

StartChar: colon
Encoding: 58 58 29
Width: 799
Flags: W
HStem: 780 20G<571.421 640.579>
VStem: 0 178<476 579> 188 183<476 577> 207 177<107 207> 394 183<107 205> 421 180<479 589> 611 180<479 587>
LayerCount: 2
Back
Fore
SplineSet
791 479 m 1xc6
 606 372 l 1
 421 479 l 1
 421 693 l 1
 606 800 l 1
 791 693 l 1
 791 479 l 1xc6
371 476 m 1xe2
 185 369 l 1
 0 476 l 1
 0 690 l 1
 185 797 l 1
 371 690 l 1
 371 476 l 1xe2
577 107 m 1xda
 392 0 l 1
 207 107 l 1
 207 321 l 1
 392 428 l 1
 577 321 l 1
 577 107 l 1xda
766 677 m 1
 761 686 l 1
 608 596 l 1
 468 679 l 1
 463 670 l 1
 601 589 l 1
 601 450 l 1xc6
 611 450 l 1
 611 587 l 1
 766 677 l 1
344 668 m 1
 338 676 l 1
 185 587 l 1
 46 669 l 1
 40 661 l 1
 178 579 l 1
 178 440 l 1
 188 440 l 1
 188 577 l 1xe2
 344 668 l 1
549 295 m 1
 544 304 l 1
 391 214 l 1
 251 297 l 1
 246 288 l 1
 384 207 l 1
 384 67 l 1
 394 67 l 1
 394 205 l 1xda
 549 295 l 1
EndSplineSet
Validated: 1
EndChar

StartChar: semicolon
Encoding: 59 59 30
Width: 804
Flags: W
VStem: -5 10<479 687> 180 10<450 584> 202 10<110 318> 366 10<479 687> 388 10<78 215> 416 10<482 690> 572 10<110 318> 786 10<482 690>
LayerCount: 2
Back
Fore
SplineSet
185 363 m 1
 -5 473 l 1
 -5 693 l 1
 185 803 l 1
 376 693 l 1
 376 473 l 1
 185 363 l 1
185 375 m 1
 366 479 l 1
 366 687 l 1
 185 791 l 1
 5 687 l 1
 5 479 l 1
 185 375 l 1
392 -6 m 1
 202 104 l 1
 202 324 l 1
 392 434 l 1
 582 324 l 1
 582 104 l 1
 392 -6 l 1
392 6 m 1
 572 110 l 1
 572 318 l 1
 392 422 l 1
 212 318 l 1
 212 110 l 1
 392 6 l 1
606 366 m 1
 416 476 l 1
 416 696 l 1
 606 806 l 1
 796 696 l 1
 796 476 l 1
 606 366 l 1
606 378 m 1
 786 482 l 1
 786 690 l 1
 606 794 l 1
 426 690 l 1
 426 482 l 1
 606 378 l 1
180 450 m 1
 180 584 l 1
 31 668 l 1
 35 676 l 1
 190 589 l 1
 190 450 l 1
 180 450 l 1
764 671 m 1
 605 578 l 1
 460 664 l 1
 466 672 l 1
 605 590 l 1
 758 679 l 1
 764 671 l 1
536 297 m 1
 398 215 l 1
 398 78 l 1
 388 78 l 1
 388 221 l 1
 530 305 l 1
 536 297 l 1
EndSplineSet
Validated: 1
EndChar

StartChar: less
Encoding: 60 60 31
Width: 799
Flags: W
HStem: 780 20G<571.421 640.579>
VStem: 0 180<476 584> 190 181<476 589> 207 181<107 221> 398 179<107 215>
LayerCount: 2
Back
Fore
SplineSet
791 479 m 1xc8
 606 372 l 1
 421 479 l 1
 421 693 l 1
 606 800 l 1
 791 693 l 1
 791 479 l 1xc8
371 476 m 1xe8
 185 369 l 1
 0 476 l 1
 0 690 l 1
 185 797 l 1
 371 690 l 1
 371 476 l 1xe8
577 107 m 1
 392 0 l 1
 207 107 l 1
 207 321 l 1xd8
 392 428 l 1
 577 321 l 1
 577 107 l 1
764 671 m 1
 758 679 l 1
 605 590 l 1
 466 672 l 1
 460 664 l 1
 605 578 l 1
 764 671 l 1
190 450 m 1xe8
 190 589 l 1
 35 676 l 1
 31 668 l 1
 180 584 l 1
 180 450 l 1
 190 450 l 1xe8
536 297 m 1
 530 305 l 1
 388 221 l 1
 388 78 l 1xd8
 398 78 l 1
 398 215 l 1
 536 297 l 1
EndSplineSet
Validated: 1
EndChar

StartChar: equal
Encoding: 61 61 32
Width: 799
Flags: W
HStem: 780 20G<571.421 640.579>
VStem: 0 178<476 579> 188 183<476 577> 207 177<107 207> 394 183<107 205> 421 180<479 589> 611 180<479 587>
LayerCount: 2
Back
Fore
SplineSet
791 479 m 1xc6
 606 372 l 1
 421 479 l 1
 421 693 l 1
 606 800 l 1
 791 693 l 1
 791 479 l 1xc6
371 476 m 1xe2
 185 369 l 1
 0 476 l 1
 0 690 l 1
 185 797 l 1
 371 690 l 1
 371 476 l 1xe2
577 107 m 1xda
 392 0 l 1
 207 107 l 1
 207 321 l 1
 392 428 l 1
 577 321 l 1
 577 107 l 1xda
766 677 m 1
 761 686 l 1
 608 596 l 1
 468 679 l 1
 463 670 l 1
 601 589 l 1
 601 450 l 1xc6
 611 450 l 1
 611 587 l 1
 766 677 l 1
344 668 m 1
 338 676 l 1
 185 587 l 1
 46 669 l 1
 40 661 l 1
 178 579 l 1
 178 440 l 1
 188 440 l 1
 188 577 l 1xe2
 344 668 l 1
549 295 m 1
 544 304 l 1
 391 214 l 1
 251 297 l 1
 246 288 l 1
 384 207 l 1
 384 67 l 1
 394 67 l 1
 394 205 l 1xda
 549 295 l 1
EndSplineSet
Validated: 1
EndChar

StartChar: question
Encoding: 63 63 34
Width: 578
Flags: W
HStem: 399 97<319.397 432> 656 143<35 138.79> 701 98<140.48 368>
VStem: 275 144<118 199.531>
LayerCount: 2
Back
Fore
SplineSet
190 419 m 5xb0
 190 439 197 456 211 472 c 4
 225 488 242 496 262 496 c 6
 432 496 l 5
 450 523 l 5
 368 701 l 5
 153 701 l 5xb0
 141 671 119 656 86 656 c 4xd0
 46 656 14 688 14 728 c 6
 14 799 l 5
 429 799 l 5
 565 501 l 6
 570 491 572 480 572 470 c 4
 572 432 539 399 500 399 c 6
 330 399 l 5
 325 384 318 374 311 367 c 5
 366 240 l 5
 395 233 419 204 419 169 c 4
 419 129 387 97 347 97 c 260
 307 97 275 129 275 169 c 4
 275 180 277 190 281 200 c 5
 190 419 l 5xb0
EndSplineSet
Validated: 1
EndChar

StartChar: at
Encoding: 64 64 35
Width: 767
Flags: W
HStem: 70 144<438.658 539.342> 682 97<140 566>
VStem: 417 144<91.6584 192.342> 595 97<163 589>
LayerCount: 2
Back
Fore
SplineSet
399 595 m 1
 488 557 l 1
 321 165 l 1
 232 202 l 1
 399 595 l 1
595 589 m 1
 692 589 l 1
 692 163 l 1
 595 163 l 1
 595 589 l 1
566 779 m 1
 566 682 l 1
 140 682 l 1
 140 779 l 1
 566 779 l 1
99 456 m 5
 265 64 l 1
 176 26 l 1
 10 418 l 1
 99 456 l 5
561 142 m 256
 561 122 554 105 540 91 c 0
 526 77 509 70 489 70 c 256
 469 70 452 77 438 91 c 0
 424 105 417 122 417 142 c 256
 417 162 424 179 438 193 c 0
 452 207 469 214 489 214 c 256
 509 214 526 207 540 193 c 0
 554 179 561 162 561 142 c 256
EndSplineSet
Validated: 1
EndChar

StartChar: A
Encoding: 65 65 36
Width: 708
Flags: W
HStem: 703 97<210.647 283.125>
VStem: 84 97<0 176 322 673.598> 548 145<21.6584 122.342>
LayerCount: 2
Back
Fore
SplineSet
181 661 m 1
 181 322 l 1
 219 322 l 1
 287 481 l 1
 301 502.333333333 321 513 347 513 c 2
 403 513 l 1
 342 655 l 1
 307.333333333 655 284 671 272 703 c 1
 223 703 l 1
 216.333333333 683.666666667 202.333333333 669.666666667 181 661 c 1
445 416 m 1
 414 416 l 1
 404 386 381 371 345 371 c 1
 279 218 l 2
 267 190 246.666666667 176 218 176 c 2
 181 176 l 1
 181 0 l 1
 84 0 l 1
 84 800 l 1
 340 800 l 2
 364 800 382.666666667 791 396 773 c 1
 688 97 l 2
 691.333333333 89 693 80.6666666667 693 72 c 0
 693 52 686 35 672 21 c 0
 658 7 641 0 621 0 c 256
 601 0 583.833333333 7 569.5 21 c 0
 555.166666667 35 548 52 548 72 c 256
 548 92 555.333333333 109 570 123 c 1
 445 416 l 1
218 176 m 1024
EndSplineSet
Validated: 1
EndChar

StartChar: B
Encoding: 66 66 37
Width: 697
Flags: W
HStem: 0 97<211.597 566.379> 416 97<275 408.82> 703 97<209.092 510.491>
VStem: 84 97<127.354 674.945>
LayerCount: 2
Back
Fore
SplineSet
693 72 m 0
 693 52 685.666666667 35 671 21 c 0
 656.333333333 7 639 0 619 0 c 2
 155 0 l 2
 135 0 118.166666667 6.66666666667 104.5 20 c 0
 90.8333333333 33.3333333333 84 50 84 70 c 2
 84 800 l 1
 565 800 l 2
 585 800 602 793 616 779 c 0
 630 765 637 748 637 728 c 0
 637 718.666666667 634.666666667 708.666666667 630 698 c 2
 529 470 l 1
 686 102 l 2
 690.666666667 91.3333333333 693 81.3333333333 693 72 c 0
571 124 m 1
 465 370 l 1
 431.666666667 370 409 385.333333333 397 416 c 1
 275 416 l 1
 275 513 l 1
 444 513 l 1
 515 676 l 1
 510.333333333 680.666666667 504.333333333 689.666666667 497 703 c 1
 221 703 l 1
 213.666666667 683 200.333333333 669 181 661 c 1
 181 139 l 1
 202.333333333 131.666666667 216.666666667 117.666666667 224 97 c 1
 553 97 l 1
 557.666666667 107.666666667 563.666666667 116.666666667 571 124 c 1
EndSplineSet
Validated: 1
EndChar

StartChar: C
Encoding: 67 67 38
Width: 697
Flags: W
HStem: 0 97<211.597 564.82> 703 97<209.444 510.049>
VStem: 84 97<127.354 674.329>
LayerCount: 2
Back
Fore
SplineSet
155 0 m 2
 135 0 118.166666667 6.66666666667 104.5 20 c 0
 90.8333333333 33.3333333333 84 50 84 70 c 2
 84 800 l 1
 565 800 l 2
 585 800 602 793 616 779 c 0
 630 765 637 748 637 728 c 0
 637 718.666666667 634.666666667 708.666666667 630 698 c 2
 529 470 l 1
 522.333333333 468 515.666666667 467 509 467 c 0
 493.666666667 467 479.666666667 470.666666667 467 478 c 0
 452.333333333 487.333333333 444.666666667 499 444 513 c 1
 515 676 l 1
 506.333333333 684.666666667 500.333333333 693.666666667 497 703 c 1
 222 703 l 1
 214 683 200.333333333 669 181 661 c 1
 181 139 l 1
 202.333333333 131.666666667 216.666666667 117.666666667 224 97 c 1
 553 97 l 1
 565 128.333333333 587.666666667 144 621 144 c 0
 641 144 658 137 672 123 c 0
 686 109 693 92 693 72 c 256
 693 52 685.5 35 670.5 21 c 0
 655.5 7 638 0 618 0 c 2
 155 0 l 2
EndSplineSet
Validated: 1
EndChar

StartChar: D
Encoding: 68 68 39
Width: 697
Flags: W
HStem: 0 97<211.597 280.563> 703 97<210.159 510.049>
VStem: 84 97<127.354 674.203>
LayerCount: 2
Back
Fore
SplineSet
565 800 m 2
 585 800 602 793 616 779 c 0
 630 765 637 748 637 728 c 0
 637 722 634.666666667 712 630 698 c 0
 606 596 567 478 513 344 c 0
 446.333333333 179.333333333 380.666666667 64.6666666667 316 0 c 1
 155 0 l 2
 135 0 118.166666667 6.66666666667 104.5 20 c 0
 90.8333333333 33.3333333333 84 50 84 70 c 2
 84 800 l 1
 565 800 l 2
181 661 m 1
 181 139 l 1
 202.333333333 131.666666667 216.666666667 117.666666667 224 97 c 1
 269 97 l 1
 393.666666667 302.333333333 475.666666667 495.333333333 515 676 c 1
 506.333333333 684.666666667 500.333333333 693.666666667 497 703 c 1
 223 703 l 1
 215.666666667 683.666666667 201.666666667 669.666666667 181 661 c 1
EndSplineSet
Validated: 1
EndChar

StartChar: E
Encoding: 69 69 40
Width: 679
Flags: W
HStem: 0 142<485.805 589.826> 0 96<131.063 483.21> 416 97<286.25 421> 703 97<185.951 611>
VStem: 3 5<96 98.5935>
LayerCount: 2
Back
Fore
SplineSet
8 96 m 1x78
 166 470 l 1
 66 698 l 2
 61.3333333333 708.666666667 59 718.666666667 59 728 c 0
 59 748 66 765 80 779 c 0
 94 793 111 800 131 800 c 2
 611 800 l 1
 611 703 l 1
 199 703 l 1
 195.666666667 693.666666667 189.666666667 684.666666667 181 676 c 1
 251 513 l 1
 421 513 l 1
 421 416 l 1
 298 416 l 1
 286 385.333333333 263.666666667 370 231 370 c 1
 125 124 l 1
 133.666666667 116 140 106.666666667 144 96 c 1
 471 96 l 1x78
 483.666666667 126.666666667 506.333333333 142 539 142 c 0
 559 142 576.166666667 135 590.5 121 c 0
 604.833333333 107 612 90 612 70 c 256
 612 50 604.833333333 33.3333333333 590.5 20 c 0
 576.166666667 6.66666666667 559 0 539 0 c 2xb8
 75 0 l 2
 55 0 38 7 24 21 c 0
 10 35 3 52 3 72 c 0
 3 81.3333333333 4.66666666667 90.3333333333 8 99 c 1
 8 96 l 1x78
EndSplineSet
Validated: 1
EndChar

StartChar: F
Encoding: 70 70 41
Width: 670
Flags: W
HStem: 416 97<275.64 410> 703 97<174.951 601>
VStem: -8 145<21.6584 122.342>
LayerCount: 2
Back
Fore
SplineSet
155 470 m 1
 55 698 l 2
 50.3333333333 708.666666667 48 718.666666667 48 728 c 0
 48 748 55 765 69 779 c 0
 83 793 100 800 120 800 c 2
 601 800 l 1
 601 703 l 1
 188 703 l 1
 184.666666667 693.666666667 178.666666667 684.666666667 170 676 c 1
 241 513 l 1
 410 513 l 1
 410 416 l 1
 287 416 l 1
 275.666666667 385.333333333 253.333333333 370 220 370 c 1
 115 123 l 1
 129.666666667 109 137 92 137 72 c 256
 137 52 129.833333333 35 115.5 21 c 0
 101.166666667 7 84 0 64 0 c 256
 44 0 27 7 13 21 c 0
 -1 35 -8 52 -8 72 c 0
 -8 84 -5 95.3333333333 1 106 c 2
 155 470 l 1
EndSplineSet
Validated: 1
EndChar

StartChar: G
Encoding: 71 71 42
Width: 760
Flags: W
HStem: 0 97<212.254 565.705> 416 97<275 408.872> 703 97<210.07 693>
VStem: 84 97<127.593 673.721>
LayerCount: 2
Back
Fore
SplineSet
84 800 m 5
 693 800 l 5
 693 703 l 5
 222 703 l 5
 215 683 201 669 181 661 c 5
 181 139 l 5
 202 132 217 118 224 97 c 5
 553 97 l 5
 557 108 563 117 571 124 c 5
 465 370 l 5
 432 370 409 385 397 416 c 5
 275 416 l 5
 275 513 l 5
 510 513 l 5
 687 99 l 6
 691 90 693 81 693 72 c 4
 693 52 685 35 670 21 c 4
 655 7 638 0 618 0 c 6
 155 0 l 6
 135 0 118 7 104 20 c 4
 90 33 84 50 84 70 c 6
 84 800 l 5
EndSplineSet
Validated: 1
EndChar

StartChar: H
Encoding: 72 72 43
Width: 627
Flags: W
HStem: -27 21G<114.5 146.5> 416 97<180 408.812> 780 20G<84 164>
VStem: 84 142<675.855 778.342> 84 96<-22.7055 416 513 673.283> 469 142<21.6584 124.79> 469 97<126.48 370 513 822.705>
LayerCount: 2
Back
Fore
SplineSet
469 513 m 5xea
 469 790 l 6
 469 815 484 827 515 827 c 4
 549 827 566 815 566 790 c 6
 566 139 l 5xea
 596 127 611 105 611 72 c 4xe4
 611 52 604 35 590 21 c 4
 576 7 559 0 539 0 c 6
 469 0 l 5
 469 370 l 5
 434 370 410 383 397 416 c 5
 180 416 l 5
 180 10 l 6
 180 -15 163 -27 130 -27 c 4
 99 -27 84 -15 84 10 c 6
 84 800 l 5xea
 154 800 l 6
 174 800 191 793 205 779 c 4
 219 765 226 748 226 728 c 4xf0
 226 696 211 674 180 661 c 5
 180 513 l 5
 469 513 l 5xea
EndSplineSet
Validated: 1
EndChar

StartChar: I
Encoding: 73 73 44
Width: 287
Flags: W
HStem: -27 21G<114.5 147> 780 20G<84 164>
VStem: 84 142<675.21 778.342> 84 97<-22.7055 673.52>
LayerCount: 2
Back
Fore
SplineSet
181 661 m 5xd0
 181 10 l 6
 181 -15 164 -27 130 -27 c 4
 99 -27 84 -15 84 10 c 6
 84 800 l 5xd0
 154 800 l 6
 174 800 191 793 205 779 c 4
 219 765 226 748 226 728 c 4xe0
 226 695 211 673 181 661 c 5xd0
EndSplineSet
Validated: 1
EndChar

StartChar: J
Encoding: 74 74 45
Width: 750
Flags: W
HStem: 0 97<161.963 516.274> 780 20G<547 627>
VStem: 547 142<675.277 778.342> 547 97<128.202 673.577>
LayerCount: 2
Back
Fore
SplineSet
157 124 m 1xd0
 165 116.666666667 171 107.666666667 175 97 c 1
 504 97 l 1
 512 118.333333333 526.333333333 132.666666667 547 140 c 1
 547 800 l 1xd0
 617 800 l 2
 637 800 654 793 668 779 c 0
 682 765 689 748 689 728 c 0xe0
 689 695.333333333 674 673 644 661 c 1
 644 77 l 2
 644 56.3333333333 637.166666667 38.3333333333 623.5 23 c 0
 609.833333333 7.66666666667 593 0 573 0 c 2
 111 0 l 2
 90.3333333333 0 72.6666666667 6.83333333333 58 20.5 c 0
 43.3333333333 34.1666666667 36 51.3333333333 36 72 c 0
 36 82 37.6666666667 91 41 99 c 2
 152 359 l 1
 166.666666667 375.666666667 184.666666667 384 206 384 c 0
 226 384 243 377 257 363 c 0
 271 349 278 332 278 312 c 256
 278 292 271 275 257 261 c 0
 243 247 226 240 206 240 c 1
 157 124 l 1xd0
EndSplineSet
Validated: 1
EndChar

StartChar: K
Encoding: 75 75 46
Width: 703
Flags: W
HStem: -27 21G<114.5 147> 416 97<181 408.872> 780 20G<84 174 576 599>
VStem: 84 142<675.21 779> 84 97<-22.7055 416 513 673.52> 548 145<21 117.344>
LayerCount: 2
Back
Fore
SplineSet
465 370 m 5xec
 432 370 409 385 397 416 c 5
 181 416 l 5
 181 10 l 6
 181 -15 164 -27 130 -27 c 4
 99 -27 84 -15 84 10 c 6
 84 800 l 5xec
 154 800 l 6
 194 800 226 768 226 728 c 4xf4
 226 695 211 673 181 661 c 5
 181 513 l 5
 444 513 l 5
 547 776 l 6
 553 792 566 800 586 800 c 4
 612 800 644 782 644 756 c 4
 644 752 643 748 642 745 c 6
 529 470 l 5
 686 100 l 6
 691 89 693 80 693 72 c 4
 693 32 661 0 621 0 c 260
 581 0 548 32 548 72 c 4
 548 93 556 110 571 124 c 5
 465 370 l 5xec
EndSplineSet
Validated: 1
EndChar

StartChar: L
Encoding: 76 76 47
Width: 724
Flags: W
HStem: 0 97<227.819 581.705> 780 20G<107 197>
VStem: 55 142<675.21 779> 100 97<128.254 673.52>
LayerCount: 2
Back
Fore
SplineSet
587 124 m 5xd0
 538 240 l 5
 498 240 466 272 466 312 c 260
 466 352 498 384 538 384 c 4
 559 384 577 376 592 359 c 5
 703 99 l 6
 707 90 709 81 709 72 c 4
 709 33 673 0 634 0 c 6
 171 0 l 6
 130 0 100 36 100 77 c 6
 100 661 l 5xd0
 70 673 55 695 55 728 c 4xe0
 55 768 87 800 127 800 c 6
 197 800 l 5
 197 140 l 5
 218 133 232 118 240 97 c 5
 569 97 l 5
 573 108 579 117 587 124 c 5xd0
EndSplineSet
Validated: 1
EndChar

StartChar: M
Encoding: 77 77 48
Width: 713
Flags: W
HStem: 580 97<500 576.785> 703 97<210.07 390.254>
VStem: 84 97<0 673.721> 272 144<391 472.531>
LayerCount: 2
Back
Fore
SplineSet
531 247 m 5
 498 247 475 262 463 293 c 5
 581 554 l 5
 576 558 570 567 562 580 c 5
 457 580 l 5
 409 473 l 5
 414 463 416 453 416 442 c 4
 416 402 384 370 344 370 c 260
 304 370 272 402 272 442 c 4
 272 477 295 506 324 513 c 5
 395 676 l 5
 386 685 380 694 377 703 c 5
 222 703 l 5
 215 683 201 669 181 661 c 5
 181 0 l 5
 84 0 l 5
 84 800 l 5
 445 800 l 6
 485 800 517 768 517 728 c 4
 517 719 511 702 500 677 c 5
 631 677 l 6
 671 677 703 645 703 605 c 4
 703 598 700 588 695 576 c 6
 590 342 l 5
 708 72 l 5
 708 32 676 0 636 0 c 260
 596 0 563 32 563 72 c 4
 563 93 570 110 585 124 c 5
 531 247 l 5
EndSplineSet
Validated: 1
EndChar

StartChar: N
Encoding: 78 78 49
Width: 880
Flags: W
HStem: 703 97<210.07 390.254>
VStem: 84 169<21 123> 84 97<144 673.721> 676 144<686.984 777.767>
LayerCount: 2
Back
Fore
SplineSet
181 661 m 1xb0
 181 144 l 1xb0
 221 144 253 112 253 72 c 256xd0
 253 32 221 0 181 0 c 2
 84 0 l 1
 84 800 l 1
 445 800 l 2
 485 800 517 768 517 728 c 0
 517 719 511 702 500 677 c 2
 409 473 l 1
 508 251 l 1
 699 676 l 1
 684 691 676 709 676 728 c 0
 676 768 708 800 748 800 c 0
 786 800 820 766 820 728 c 0
 820 717 818 707 814 698 c 2
 495 -7 l 1
 480 -7 464 -3 448 5 c 0
 430 14 419 26 414 39 c 1
 448 118 l 1
 336 370 l 1
 302 375 272 404 272 442 c 0
 272 477 295 506 324 513 c 1
 395 676 l 1
 386 685 380 694 377 703 c 1
 222 703 l 1
 215 683 201 669 181 661 c 1xb0
EndSplineSet
Validated: 1
EndChar

StartChar: O
Encoding: 79 79 50
Width: 860
Flags: W
HStem: 0 97<130.295 395.391> 702 98<407.265 677.548>
LayerCount: 2
Back
Fore
SplineSet
125 124 m 5
 133 117 139 108 143 97 c 5
 385 97 l 5
 398 130 412 144 456 144 c 5
 680 678 l 5
 671 686 665 694 662 702 c 5
 420 702 l 5
 408 672 385 657 351 657 c 5
 125 124 l 5
729 800 m 6
 770 800 798 769 798 728 c 4
 798 715 795 703 790 690 c 6
 522 53 l 6
 518 38 509 25 496 15 c 4
 483 5 468 0 452 0 c 6
 76 0 l 6
 35 0 6 32 6 73 c 4
 6 85 8 96 12 105 c 6
 291 767 l 5
 304 789 323 800 347 800 c 6
 729 800 l 6
EndSplineSet
Validated: 1
EndChar

StartChar: P
Encoding: 80 80 51
Width: 631
Flags: W
HStem: 416 97<209 339.97> 703 97<144.403 444.544>
VStem: 18 97<0 673.836>
LayerCount: 2
Back
Fore
SplineSet
499 800 m 6
 539 800 571 768 571 728 c 4
 571 719 569 709 564 698 c 6
 463 470 l 5
 466 463 468 455 468 445 c 4
 468 405 436 373 396 373 c 4
 361 373 338 387 327 416 c 5
 209 416 l 5
 209 513 l 5
 378 513 l 5
 449 676 l 5
 444 681 438 690 431 703 c 5
 157 703 l 5
 150 684 136 670 115 661 c 5
 115 0 l 5
 18 0 l 5
 18 800 l 5
 499 800 l 6
EndSplineSet
Validated: 1
EndChar

StartChar: Q
Encoding: 81 81 52
Width: 860
Flags: W
HStem: 0 97<130.295 396.656> 214 97<384 485> 702 98<407.265 677.548>
LayerCount: 2
Back
Fore
SplineSet
790 690 m 6
 632 313 l 5
 738 72 l 5
 738 32 706 0 666 0 c 260
 626 0 593 32 593 72 c 4
 593 93 600 110 615 124 c 5
 583 197 l 5
 522 53 l 6
 518 38 509 25 496 15 c 4
 483 5 468 0 452 0 c 6
 76 0 l 6
 35 0 6 32 6 73 c 4
 6 85 8 96 12 105 c 6
 291 767 l 5
 304 789 323 800 347 800 c 6
 729 800 l 6
 770 800 798 769 798 728 c 4
 798 715 795 703 790 690 c 6
680 678 m 5
 671 686 665 694 662 702 c 5
 420 702 l 5
 408 672 385 657 351 657 c 5
 125 124 l 5
 133 117 139 108 143 97 c 5
 385 97 l 5
 398 130 421 144 456 144 c 5
 485 214 l 5
 343 214 l 5
 384 311 l 5
 526 311 l 5
 680 678 l 5
EndSplineSet
Validated: 1
EndChar

StartChar: R
Encoding: 82 82 53
Width: 697
Flags: W
HStem: 416 97<275 408.872> 703 97<210.07 510.254>
VStem: 84 97<0 673.721> 548 145<21 122.295>
LayerCount: 2
Back
Fore
SplineSet
465 370 m 5
 432 370 409 385 397 416 c 5
 275 416 l 5
 275 513 l 5
 444 513 l 5
 515 676 l 5
 506 685 500 694 497 703 c 5
 222 703 l 5
 215 683 201 669 181 661 c 5
 181 0 l 5
 84 0 l 5
 84 800 l 5
 565 800 l 6
 605 800 637 768 637 728 c 4
 637 719 635 709 630 698 c 6
 529 470 l 5
 685 103 l 6
 690 90 693 80 693 72 c 4
 693 32 661 0 621 0 c 260
 581 0 548 32 548 72 c 4
 548 91 555 108 570 123 c 5
 465 370 l 5
EndSplineSet
Validated: 1
EndChar

StartChar: S
Encoding: 83 83 54
Width: 675
Flags: W
HStem: 0 142<28 131.79 331.182 388> 0 97<133.48 329.48> 418 97<180.553 488.162> 656 144<229 283.651 485.21 589> 701 99<285.465 483.52>
LayerCount: 2
Back
Fore
SplineSet
7 0 m 5x70
 7 70 l 6
 7 110 39 142 79 142 c 4xa0
 112 142 134 127 146 97 c 5
 318 97 l 5
 329 128 353 144 388 144 c 5
 493 391 l 5
 484 400 477 409 474 418 c 5
 128 418 l 6
 88 418 56 450 56 490 c 4
 56 500 59 511 64 523 c 6
 168 761 l 6
 179 787 201 800 232 800 c 6x70
 610 800 l 5x28
 610 728 l 6
 610 688 578 656 538 656 c 4x30
 505 656 483 671 471 701 c 5
 299 701 l 5x28
 286 671 262 656 229 656 c 5
 178 539 l 5
 186 532 192 524 196 515 c 5
 542 515 l 6
 582 515 614 483 614 443 c 4
 614 433 612 423 608 414 c 6
 453 50 l 6
 439 17 418 0 390 0 c 6
 7 0 l 5x70
EndSplineSet
Validated: 1
EndChar

StartChar: T
Encoding: 84 84 55
Width: 697
Flags: W
HStem: 703 97<38 243 340 510.254>
VStem: 198 142<21 124.79> 243 97<126.48 703>
LayerCount: 2
Back
Fore
SplineSet
38 703 m 5xa0
 38 800 l 5
 565 800 l 6
 605 800 637 768 637 728 c 4
 637 719 635 709 630 698 c 6
 529 470 l 5
 522 468 516 467 509 467 c 4
 478 467 445 485 444 513 c 5
 515 676 l 5
 506 685 500 694 497 703 c 5
 340 703 l 5
 340 0 l 5xa0
 270 0 l 6
 230 0 198 32 198 72 c 4xc0
 198 105 213 127 243 139 c 5
 243 703 l 5
 38 703 l 5xa0
EndSplineSet
Validated: 1
EndChar

StartChar: U
Encoding: 85 85 56
Width: 708
Flags: W
HStem: 0 97<212.254 565.705> 780 20G<84 200 397 510>
VStem: 84 168<678.937 779> 84 97<127.593 662> 397 113<513 800>
LayerCount: 2
Back
Fore
SplineSet
84 70 m 6xd8
 84 800 l 5xd8
 180 800 l 6
 220 800 252 768 252 728 c 260xe8
 252 688 222 662 181 662 c 5
 181 139 l 5
 202 132 217 118 224 97 c 5
 553 97 l 5
 557 108 563 117 571 124 c 5
 465 370 l 5
 432 370 409 385 397 416 c 5
 397 800 l 5
 510 800 l 5
 510 513 l 5
 687 99 l 6
 691 90 693 81 693 72 c 4
 693 32 658 0 618 0 c 6
 155 0 l 6
 135 0 118 7 104 20 c 4
 90 33 84 50 84 70 c 6xd8
EndSplineSet
Validated: 1
EndChar

StartChar: V
Encoding: 86 86 57
Width: 695
Flags: W
HStem: 0 97<212.254 280.593> 780 20G<84 174>
VStem: 84 142<675.21 779> 84 97<127.593 673.52> 490 144<680.956 781>
LayerCount: 2
Back
Fore
SplineSet
269 97 m 5xd8
 394 304 476 496 515 675 c 5
 498 689 490 707 490 730 c 4
 490 770 522 802 562 802 c 260
 602 802 634 770 634 730 c 4
 634 723 633 716 631 708 c 4
 602 593 562 473 513 349 c 4
 446 180 380 64 316 0 c 5
 155 0 l 6
 135 0 118 7 104 20 c 4
 90 33 84 50 84 70 c 6
 84 800 l 5xd8
 154 800 l 6
 194 800 226 768 226 728 c 4xe8
 226 695 211 673 181 661 c 5
 181 139 l 5
 202 132 217 118 224 97 c 5
 269 97 l 5xd8
EndSplineSet
Validated: 1
EndChar

StartChar: W
Encoding: 87 87 58
Width: 917
Flags: W
HStem: 0 97<154.254 208.321 449.254 502.596> 780 20G<26 116>
VStem: 26 142<675.21 779> 26 97<127.593 673.52> 321 97<289.782 486> 712 144<679.044 781>
LayerCount: 2
Back
Fore
SplineSet
321 70 m 6xdc
 321 104 l 5
 294 59 268 25 243 0 c 5
 97 0 l 6
 77 0 60 7 46 20 c 4
 32 33 26 50 26 70 c 6
 26 800 l 5xdc
 96 800 l 6
 136 800 168 768 168 728 c 4xec
 168 695 153 673 123 661 c 5
 123 139 l 5
 144 132 159 118 166 97 c 5
 196 97 l 5
 240 170 282 248 321 333 c 5
 321 486 l 5
 418 486 l 5
 418 139 l 5
 439 132 454 118 461 97 c 5
 491 97 l 5
 616 304 699 496 738 675 c 5
 721 689 712 707 712 730 c 4
 712 770 744 802 784 802 c 260
 824 802 856 770 856 730 c 4
 856 722 855 715 853 708 c 4
 842 623 805 507 744 359 c 4
 672 185 603 65 538 0 c 5
 392 0 l 6
 372 0 356 7 342 20 c 4
 328 33 321 50 321 70 c 6xdc
EndSplineSet
Validated: 1
EndChar

StartChar: X
Encoding: 88 88 59
Width: 645
Flags: W
HStem: 0 144<557 614> 656 144<60 114>
VStem: 437 97<193 240.151>
LayerCount: 2
Back
Fore
SplineSet
299 446 m 5
 326 434 l 5
 481 800 l 5
 587 800 l 5
 414 396 l 5
 503 356 l 5
 524 342 534 322 534 296 c 6
 534 193 l 5
 557 144 l 5
 563 144 l 6
 603 144 635 112 635 72 c 260
 635 32 603 0 563 0 c 4
 532 0 510 14 497 42 c 6
 437 178 l 5
 437 228 l 5
 408 239 393 262 393 298 c 5
 376 305 l 5
 247 0 l 5
 142 0 l 5
 287 343 l 5
 227 371 l 6
 199 384 185 405 185 432 c 6
 185 489 l 5
 114 656 l 5
 72 656 39 686 39 728 c 260
 39 768 71 800 111 800 c 4
 142 800 165 785 178 754 c 6
 299 476 l 5
 299 446 l 5
EndSplineSet
Validated: 1
EndChar

StartChar: Y
Encoding: 89 89 60
Width: 645
Flags: W
HStem: 656 144<60 114>
LayerCount: 2
Back
Fore
SplineSet
587 800 m 5
 247 0 l 5
 142 0 l 5
 287 343 l 5
 227 371 l 6
 199 384 185 403 185 430 c 6
 185 489 l 5
 114 656 l 5
 72 656 39 686 39 728 c 260
 39 768 71 800 111 800 c 4
 142 800 165 785 178 754 c 6
 299 476 l 5
 299 446 l 5
 326 434 l 5
 481 800 l 5
 587 800 l 5
EndSplineSet
Validated: 1
EndChar

StartChar: Z
Encoding: 90 90 61
Width: 660
Flags: W
HStem: 0 143<478.21 582> 0 98<198 476.52> 657 142<23 126.79> 702 97<128.48 460>
LayerCount: 2
Back
Fore
SplineSet
163 185 m 5x10
 198 98 l 5
 464 98 l 5x50
 476 128 498 143 531 143 c 4x80
 571 143 603 110 603 70 c 6
 603 0 l 5
 134 0 l 5
 73 145 l 5
 40 156 24 179 24 213 c 4
 24 255 61 285 107 285 c 5
 460 702 l 5
 141 702 l 5x50
 129 672 107 657 74 657 c 4x20
 34 657 2 689 2 729 c 6
 2 799 l 5
 526 799 l 5
 560 794 587 766 587 728 c 4
 587 711 581 695 568 680 c 6
 168 209 l 5
 168 201 166 193 163 185 c 5x10
EndSplineSet
Validated: 1
EndChar

StartChar: a
Encoding: 97 97 62
Width: 693
Flags: W
HStem: 0 96<134.273 426> 416 98<292.994 489.238>
VStem: 519 98<0 386.238>
LayerCount: 2
Back
Fore
SplineSet
170 466 m 2
 184 498 206.333333333 514 237 514 c 2
 546 513 l 2
 566 513 582.833333333 506.333333333 596.5 493 c 0
 610.166666667 479.666666667 617 463 617 443 c 2
 617 0 l 1
 519 0 l 1
 519 374 l 1
 498.333333333 381.333333333 484.333333333 395.333333333 477 416 c 1
 305 416 l 1
 294.333333333 386.666666667 271 372 235 372 c 1
 129 123 l 1
 139 113.666666667 145.666666667 104.666666667 149 96 c 1
 426 97 l 1
 426 0 l 1
 80 0 l 2
 60 0 43 7 29 21 c 0
 15 35 8 52 8 72 c 0
 8 82 10.3333333333 92.3333333333 15 103 c 2
 170 466 l 2
EndSplineSet
Validated: 1
EndChar

StartChar: b
Encoding: 98 98 63
Width: 582
Flags: W
HStem: 0 97<142.597 497.049> 416 97<206 339.501> 780 20G<15 95>
VStem: 15 142<675.277 778.342> 15 97<127.354 673.577>
LayerCount: 2
Back
Fore
SplineSet
85 0 m 2xe8
 65 0 48.3333333333 6.66666666667 35 20 c 0
 21.6666666667 33.3333333333 15 50 15 70 c 2
 15 800 l 1xe8
 85 800 l 2
 105 800 122 793 136 779 c 0
 150 765 157 748 157 728 c 0xf0
 157 695.333333333 142 673 112 661 c 1
 112 139 l 1
 133.333333333 131.666666667 147.666666667 117.666666667 155 97 c 1
 484 97 l 1
 487.333333333 106.333333333 493.333333333 115.333333333 502 124 c 1
 397 370 l 1
 362.333333333 370 339.333333333 385.333333333 328 416 c 1
 206 416 l 1
 206 513 l 1
 395 514 l 2
 425 514 446.666666667 498.666666667 460 468 c 2
 617 101 l 2
 621 91.6666666667 623 82 623 72 c 0
 623 52 616.666666667 35 604 21 c 0
 591.333333333 7 575 0 555 0 c 2
 85 0 l 2xe8
EndSplineSet
Validated: 1
EndChar

StartChar: c
Encoding: 99 99 64
Width: 672
Flags: W
HStem: 0 97<131.305 422> 371 142<230 287.645 487.277 590.342> 415 98<288.511 486.42>
LayerCount: 2
Back
Fore
SplineSet
126 124 m 1xa0
 134.666666667 116 140.666666667 107 144 97 c 1
 422 97 l 1
 422 0 l 1
 76 0 l 2
 56 0 39 7 25 21 c 0
 11 35 4 52 4 72 c 0
 4 80.6666666667 6.66666666667 91.3333333333 12 104 c 2
 166 468 l 2
 178.666666667 498 201 513 233 513 c 2xc0
 612 513 l 1xa0
 612 443 l 2
 612 423 605 406 591 392 c 0
 577 378 560 371 540 371 c 0xc0
 507.333333333 371 485 386 473 416 c 1
 301 415 l 1
 289.666666667 385 266 370 230 370 c 1
 126 124 l 1xa0
EndSplineSet
Validated: 1
EndChar

StartChar: d
Encoding: 100 100 65
Width: 700
Flags: W
HStem: 0 97<141.694 495.886> 416 97<298.968 432> 780 20G<544 623>
VStem: 481 142<675.277 778.342> 526 97<127.354 673.577>
LayerCount: 2
Back
Fore
SplineSet
432 513 m 1xe8
 432 416 l 1
 311 416 l 1
 299 385.333333333 275.333333333 370 240 370 c 1
 136 124 l 1
 145.333333333 116 151.666666667 107 155 97 c 1
 483 97 l 1
 491 117.666666667 505.333333333 131.666666667 526 139 c 1
 526 661 l 1xe8
 496 673 481 695.333333333 481 728 c 0xf0
 481 748 488.166666667 765 502.5 779 c 0
 516.833333333 793 534 800 554 800 c 2
 623 800 l 1
 623 70 l 2
 623 50 616.333333333 33.3333333333 603 20 c 0
 589.666666667 6.66666666667 573 0 553 0 c 2
 87 0 l 2
 67 0 50 7 36 21 c 0
 22 35 15 52 15 72 c 0
 15 84.6666666667 18 96.3333333333 24 107 c 2
 177 470 l 2
 189 498.666666667 211.333333333 513 244 513 c 2
 432 513 l 1xe8
EndSplineSet
Validated: 1
EndChar

StartChar: e
Encoding: 101 101 66
Width: 674
Flags: W
HStem: 0 142<318.18 420.826> 0 97<151.963 316.498> 213 97<320 476> 416 97<310.039 506.845>
LayerCount: 2
Back
Fore
SplineSet
511 390 m 1x70
 501.666666667 398.666666667 495.333333333 407.333333333 492 416 c 1
 322 416 l 1
 310 384.666666667 286.666666667 369 252 369 c 1
 147 124 l 1
 155 116 161 107 165 97 c 1
 304 97 l 1x70
 316 127 338 142 370 142 c 0xb0
 390 142 407.166666667 135 421.5 121 c 0
 435.833333333 107 443 90 443 70 c 2
 443 0 l 1
 97 0 l 2
 77 0 60 7 46 21 c 0
 32 35 25 52 25 72 c 0
 25 81.3333333333 27.6666666667 92.3333333333 33 105 c 2
 187 467 l 2
 200.333333333 497.666666667 223 513 255 513 c 2
 561 513 l 2
 581 513 598 506 612 492 c 0
 626 478 633 461 633 441 c 0
 633 432.333333333 630.666666667 422.666666667 626 412 c 2
 541 213 l 1
 278 213 l 1
 320 310 l 1
 476 310 l 1
 511 390 l 1x70
EndSplineSet
Validated: 1
EndChar

StartChar: f
Encoding: 102 102 67
Width: 481
Flags: W
HStem: 656 144<344 397.679>
VStem: 72 143<21.6584 124.723>
LayerCount: 2
Back
Fore
SplineSet
139 420 m 1
 41 420 l 1
 41 323 l 1
 117 323 l 1
 117 139 l 1
 87 127 72 104.666666667 72 72 c 0
 72 52 79.1666666667 35 93.5 21 c 0
 107.833333333 7 125 0 145 0 c 2
 215 0 l 1
 215 291 l 1
 247 302.333333333 263 324.666666667 263 358 c 0
 263 378.666666667 255 396.333333333 239 411 c 1
 344 656 l 1
 364 656 381.666666667 663 397 677 c 0
 412.333333333 691 420 708 420 728 c 256
 420 748 413 765 399 779 c 0
 385 793 368 800 348 800 c 0
 316 800 293.666666667 785.333333333 281 756 c 2
 139 420 l 1
EndSplineSet
Validated: 9
EndChar

StartChar: g
Encoding: 103 103 68
Width: 728
Flags: W
HStem: -374 144<381.69 434> 0 97<169.963 461> 416 97<326.669 524.238>
VStem: 554 98<54 386.238>
LayerCount: 2
Back
Fore
SplineSet
554 54 m 1
 554 374 l 1
 533.333333333 381.333333333 519.333333333 395.333333333 512 416 c 1
 339 416 l 1
 327.666666667 386 304.666666667 371 270 371 c 1
 165 124 l 1
 173 116 179 107 183 97 c 1
 461 97 l 1
 461 0 l 1
 116 0 l 2
 96 0 78.8333333333 7 64.5 21 c 0
 50.1666666667 35 43 52 43 72 c 0
 43 82.6666666667 45 92.6666666667 49 102 c 2
 206 470 l 2
 218 498.666666667 240.333333333 513 273 513 c 2
 581 513 l 2
 601 513 617.833333333 506.333333333 631.5 493 c 0
 645.166666667 479.666666667 652 463 652 443 c 2
 652 33 l 1
 498 -329 l 2
 485.333333333 -359 463 -374 431 -374 c 0
 411 -374 394 -367 380 -353 c 0
 366 -339 359 -322 359 -302 c 0
 359 -281.333333333 366.333333333 -264.166666667 381 -250.5 c 0
 395.666666667 -236.833333333 413.333333333 -230 434 -230 c 1
 554 54 l 1
EndSplineSet
Validated: 1
EndChar

StartChar: h
Encoding: 104 104 69
Width: 657
Flags: W
HStem: 416 97<109 334.568> 780 20G<12 92>
VStem: 12 144<22.6584 124.85 677.038 777.679> 12 97<128.25 416 513 673.577> 476 145<21.6584 123.616>
LayerCount: 2
Back
Fore
SplineSet
394 371 m 1xd8
 357.333333333 371 333.333333333 386 322 416 c 1
 109 416 l 1
 109 140 l 1xd8
 140.333333333 128 156 105.666666667 156 73 c 0xe8
 156 53 149 36 135 22 c 0
 121 8 104 1 84 1 c 2
 12 1 l 1
 12 800 l 1
 82 800 l 2
 102 800 119 793 133 779 c 0
 147 765 154 748 154 728 c 0
 154 695.333333333 139 673 109 661 c 1
 109 513 l 1
 392 513 l 2
 424 513 446.333333333 497.666666667 459 467 c 2
 614 101 l 2
 618.666666667 89.6666666667 621 80 621 72 c 0
 621 52 614 35 600 21 c 0
 586 7 569 0 549 0 c 256
 529 0 511.833333333 7 497.5 21 c 0
 483.166666667 35 476 52 476 72 c 0
 476 92.6666666667 483.666666667 110.333333333 499 125 c 1
 394 371 l 1xd8
EndSplineSet
Validated: 1
EndChar

StartChar: i
Encoding: 105 105 70
Width: 254
Flags: W
HStem: 565 144<57.6584 158.342>
VStem: 36 144<586.658 687.342> 57 143<21.6584 125.152>
LayerCount: 2
Back
Fore
SplineSet
57 0 m 1xa0
 128 0 l 2
 148 0 165 7 179 21 c 0
 193 35 200 52 200 72 c 0
 200 105.333333333 184.666666667 127.666666667 154 139 c 1
 154 513 l 1
 57 513 l 1
 57 0 l 1xa0
36 637 m 256xc0
 36 657 43 674 57 688 c 0xa0
 71 702 88 709 108 709 c 256
 128 709 145 702 159 688 c 0
 173 674 180 657 180 637 c 256xc0
 180 617 173 600 159 586 c 0
 145 572 128 565 108 565 c 256
 88 565 71 572 57 586 c 0xa0
 43 600 36 617 36 637 c 256xc0
EndSplineSet
Validated: 9
EndChar

StartChar: j
Encoding: 106 106 71
Width: 387
Flags: W
HStem: -374 143<43.6589 96> 493 20G<197.956 295> 565 144<198.658 299.342>
VStem: 174 121<-9 53.6162> 177 144<586.658 687.342> 197 98<15.1318 513>
LayerCount: 2
Back
Fore
SplineSet
183 -32 m 1xf0
 177 -20.6666666667 174 -9.33333333333 174 2 c 0xf0
 174 22.6666666667 181.666666667 40.3333333333 197 55 c 1
 198 513 l 1
 295 513 l 1xe4
 295 -9 l 1
 160 -333 l 2
 148.666666667 -360.333333333 126.666666667 -374 94 -374 c 0
 74 -374 57 -367 43 -353 c 0
 29 -339 22 -322 22 -302 c 0
 22 -280.666666667 29 -263.333333333 43 -250 c 0
 57 -236.666666667 74.6666666667 -230.333333333 96 -231 c 1
 183 -32 l 1xf0
177 637 m 256xe8
 177 657 184 674 198 688 c 0
 212 702 229 709 249 709 c 256
 269 709 286 702 300 688 c 0
 314 674 321 657 321 637 c 256
 321 617 314 600 300 586 c 0
 286 572 269 565 249 565 c 256
 229 565 212 572 198 586 c 0
 184 600 177 617 177 637 c 256xe8
EndSplineSet
Validated: 33
EndChar

StartChar: k
Encoding: 107 107 72
Width: 535
Flags: W
VStem: 84 144<22.6584 124.85 677.038 777.679> 330 145<389.263 491.342>
LayerCount: 2
Back
Fore
SplineSet
343 215 m 1
 435 -2 l 1
 455.666666667 -2 473 3 487 13 c 0
 503.666666667 24.3333333333 512 39.6666666667 512 59 c 1
 415 289 l 1
 467 410 l 2
 472.333333333 422.666666667 475 433 475 441 c 0
 475 461 468 478 454 492 c 0
 440 506 423 513 403 513 c 256
 383 513 365.833333333 506 351.5 492 c 0
 337.166666667 478 330 461 330 441 c 0
 330 419 337.666666667 401.333333333 353 388 c 1
 320 311 l 1
 181 311 l 1
 181 661 l 1
 211 673 226 695.333333333 226 728 c 0
 226 748 219 765 205 779 c 0
 191 793 174 800 154 800 c 2
 84 800 l 1
 84 1 l 1
 156 1 l 2
 176 1 193 8 207 22 c 0
 221 36 228 53 228 73 c 0
 228 105.666666667 212.333333333 128 181 140 c 1
 181 215 l 1
 343 215 l 1
EndSplineSet
Validated: 9
EndChar

StartChar: l
Encoding: 108 108 73
Width: 296
Flags: W
HStem: 780 20G<91 171>
VStem: 45 143<22.6584 125.723> 91 142<675.277 778.342> 91 97<128.25 673.577>
LayerCount: 2
Back
Fore
SplineSet
188 1 m 1x90
 117 1 l 2
 97 1 80 8 66 22 c 0
 52 36 45 53 45 73 c 0xc0
 45 105.666666667 60.3333333333 128 91 140 c 1
 91 800 l 1x90
 161 800 l 2
 181 800 198 793 212 779 c 0
 226 765 233 748 233 728 c 0xa0
 233 695.333333333 218 673 188 661 c 1
 188 1 l 1x90
EndSplineSet
Validated: 1
EndChar

StartChar: m
Encoding: 109 109 74
Width: 772
Flags: W
HStem: 371 142<261.043 316 545.684 602> 416 97<181 259.331 402 543.961>
VStem: 83 145<21.6584 124.291> 83 98<127.64 416> 398 145<21.6584 123.341> 683 145<21.6584 124.341>
LayerCount: 2
Back
Fore
SplineSet
602 370 m 1x9c
 567.333333333 370 544 385.333333333 532 416 c 1
 402 416 l 1x5c
 536 102 l 2
 540.666666667 91.3333333333 543 81.3333333333 543 72 c 0
 543 52 536 35 522 21 c 0
 508 7 491 0 471 0 c 256
 451 0 433.833333333 7 419.5 21 c 0
 405.166666667 35 398 52 398 72 c 0
 398 92.6666666667 405.333333333 110 420 124 c 1
 316 371 l 1x9c
 281.333333333 371 258.333333333 386 247 416 c 1
 181 416 l 1
 181 139 l 1x5c
 212.333333333 127.666666667 228 105.333333333 228 72 c 0x6c
 228 52 221 35 207 21 c 0
 193 7 176 0 156 0 c 2
 83 0 l 1
 83 513 l 1x5c
 600 513 l 2
 630.666666667 513 652.333333333 498.333333333 665 469 c 2
 821 102 l 2
 825.666666667 91.3333333333 828 81.3333333333 828 72 c 0
 828 52 821 35 807 21 c 0
 793 7 776 0 756 0 c 256
 736 0 718.833333333 7 704.5 21 c 0
 690.166666667 35 683 52 683 72 c 0
 683 93.3333333333 690.333333333 111 705 125 c 1
 602 370 l 1x9c
EndSplineSet
Validated: 1
EndChar

StartChar: n
Encoding: 110 110 75
Width: 577
Flags: W
HStem: 416 97<182 258.181>
VStem: 83 145<21.6584 125.152> 83 99<127.64 416> 399 144<21.6584 124.341>
LayerCount: 2
Back
Fore
SplineSet
317 370 m 1xb0
 281 370 257.666666667 385.333333333 247 416 c 1
 182 416 l 1
 182 139 l 1xb0
 212.666666667 127.666666667 228 105.333333333 228 72 c 0xd0
 228 52 221 35 207 21 c 0
 193 7 176 0 156 0 c 2
 83 0 l 1
 83 513 l 1
 318 513 l 2
 347.333333333 513 368.666666667 497.333333333 382 466 c 2
 537 101 l 2
 541 91.6666666667 543 82 543 72 c 0
 543 52 536 35 522 21 c 0
 508 7 491 0 471 0 c 256
 451 0 434 7 420 21 c 0
 406 35 399 52 399 72 c 0
 399 93.3333333333 406.333333333 111 421 125 c 1
 317 370 l 1xb0
EndSplineSet
Validated: 1
EndChar

StartChar: o
Encoding: 111 111 76
Width: 715
Flags: W
HStem: 0 97<165.937 362.125> 415 98<322.265 521.875>
LayerCount: 2
Back
Fore
SplineSet
161 124 m 1
 168.333333333 117.333333333 174.333333333 108.333333333 179 97 c 1
 351 97 l 1
 363 129.666666667 386.333333333 145.333333333 421 144 c 1
 525 390 l 1
 516.333333333 398.666666667 510.333333333 407 507 415 c 1
 335 415 l 1
 323 385 300 370 266 370 c 1
 161 124 l 1
574 513 m 2
 595.333333333 513 612.166666667 506.166666667 624.5 492.5 c 0
 636.833333333 478.833333333 643 461.333333333 643 440 c 0
 643 428 640.333333333 415.666666667 635 403 c 2
 488 53 l 1
 477.333333333 17.6666666667 453.666666667 0 417 0 c 2
 111 0 l 2
 90.3333333333 0 73.5 7 60.5 21 c 0
 47.5 35 41 52.3333333333 41 73 c 0
 41 83 43.3333333333 93.6666666667 48 105 c 2
 207 480 l 1
 220.333333333 502 238.666666667 513 262 513 c 2
 574 513 l 2
EndSplineSet
Validated: 33
EndChar

StartChar: p
Encoding: 112 112 77
Width: 875
Flags: W
HStem: -379 144<72.6584 126> 0 97<437 727.049> 416 97<372.762 568.252>
VStem: 246 97<49 386.238>
LayerCount: 2
Back
Fore
SplineSet
246 49 m 1
 246 443 l 2
 246 463 252.666666667 479.666666667 266 493 c 0
 279.333333333 506.333333333 296 513 316 513 c 2
 626 513 l 2
 657.333333333 513 679.666666667 497.333333333 693 466 c 2
 848 101 l 2
 852 91.6666666667 854 82 854 72 c 0
 854 52 847 35 833 21 c 0
 819 7 802 0 782 0 c 2
 437 0 l 1
 437 97 l 1
 714 97 l 1
 717.333333333 106.333333333 723.333333333 115.333333333 732 124 c 1
 628 370 l 1
 591.333333333 370 567.666666667 385.333333333 557 416 c 1
 385 416 l 1
 377.666666667 395.333333333 363.666666667 381.333333333 343 374 c 1
 343 33 l 1
 190 -337 l 2
 178.666666667 -365 156.333333333 -379 123 -379 c 0
 103 -379 86 -372 72 -358 c 0
 58 -344 51 -327 51 -307 c 256
 51 -287 58 -270 72 -256 c 0
 86 -242 103 -235 123 -235 c 2
 126 -235 l 1
 246 49 l 1
EndSplineSet
Validated: 1
EndChar

StartChar: q
Encoding: 113 113 78
Width: 894
Flags: W
HStem: -379 144<784 837.342>
LayerCount: 2
Back
Fore
SplineSet
665 49 m 1
 665 443 l 2
 665 463 658.166666667 479.666666667 644.5 493 c 0
 630.833333333 506.333333333 614 513 594 513 c 2
 284 513 l 2
 252.666666667 513 230.333333333 497.333333333 217 466 c 2
 62 101 l 2
 58 91.6666666667 56 82 56 72 c 0
 56 52 63 35 77 21 c 0
 91 7 108 0 128 0 c 2
 474 0 l 1
 474 97 l 1
 196 97 l 1
 192.666666667 106.333333333 186.666666667 115.333333333 178 124 c 1
 283 370 l 1
 319 370 342.333333333 385.333333333 353 416 c 1
 525 416 l 1
 532.333333333 395.333333333 546.333333333 381.333333333 567 374 c 1
 567 33 l 1
 720 -337 l 2
 731.333333333 -365 753.666666667 -379 787 -379 c 0
 807 -379 824 -372 838 -358 c 0
 852 -344 859 -327 859 -307 c 256
 859 -287 852 -270 838 -256 c 0
 824 -242 807 -235 787 -235 c 2
 784 -235 l 1
 665 49 l 1
EndSplineSet
Validated: 9
EndChar

StartChar: r
Encoding: 114 114 79
Width: 733
Flags: W
HStem: 416 97<339.18 535.937>
VStem: 56 145<21.6584 120.922>
LayerCount: 2
Back
Fore
SplineSet
217 465 m 2
 230.333333333 497 252.666666667 513 284 513 c 2
 592 513 l 2
 612 513 629 506 643 492 c 0
 657 478 664 461 664 441 c 0
 664 432.333333333 661.333333333 421.666666667 656 409 c 2
 573 213 l 1
 483 251 l 1
 542 388 l 1
 533.333333333 396 527 405.333333333 523 416 c 1
 351 416 l 1
 339 385.333333333 316.333333333 370 283 370 c 1
 177 123 l 1
 193 108.333333333 201 91.3333333333 201 72 c 0
 201 52 193.833333333 35 179.5 21 c 0
 165.166666667 7 148 0 128 0 c 256
 108 0 91 7 77 21 c 0
 63 35 56 52 56 72 c 0
 56 83.3333333333 58.6666666667 94 64 104 c 2
 217 465 l 2
EndSplineSet
Validated: 1
EndChar

StartChar: s
Encoding: 115 115 80
Width: 556
Flags: W
HStem: 0 142<148.174 250.82> 0 97<252.502 417.344> 215 96<198 381> 370 143<368.945 473.342> 415 98<169.573 367.252>
LayerCount: 2
Back
Fore
SplineSet
127 0 m 1x68
 126 70 l 2
 126 90 133.166666667 107 147.5 121 c 0
 161.833333333 135 179 142 199 142 c 0xa0
 231 142 253 127 265 97 c 1
 404 97 l 1
 407.333333333 105.666666667 412.666666667 114 420 122 c 1
 381 214 l 1
 134 215 l 1
 48 417 l 2
 44.6666666667 425 43 433 43 441 c 0
 43 461 50.1666666667 478 64.5 492 c 0
 78.8333333333 506 96 513 116 513 c 2x68
 423 513 l 2
 443 513 460 506.166666667 474 492.5 c 0
 488 478.833333333 495 462 495 442 c 256
 495 422 488 405 474 391 c 0
 460 377 443 370 423 370 c 0x30
 389 370 366.333333333 385 355 415 c 1
 182 415 l 1
 178 404.333333333 172.333333333 395.333333333 165 388 c 1
 198 311 l 1
 446 311 l 1
 533 103 l 2
 537.666666667 91.6666666667 540 80.3333333333 540 69 c 0
 540 49 533.666666667 32.5 521 19.5 c 0
 508.333333333 6.5 492 0 472 0 c 2
 127 0 l 1x68
EndSplineSet
Validated: 1
EndChar

StartChar: t
Encoding: 116 116 81
Width: 358
Flags: W
VStem: 129 142<460.277 563.342> 174 143<21.6584 125.152>
LayerCount: 2
Back
Fore
SplineSet
93 420 m 1x40
 93 323 l 1
 174 323 l 1
 174 0 l 1
 245 0 l 2
 265 0 282 7 296 21 c 0
 310 35 317 52 317 72 c 0x40
 317 105.333333333 301.666666667 127.666666667 271 139 c 1
 271 323 l 1
 343 323 l 1
 343 420 l 1
 271 420 l 1
 271 585 l 1
 201 585 l 2
 181 585 164 578 150 564 c 0
 136 550 129 533 129 513 c 0x80
 129 480.333333333 144 458 174 446 c 1
 174 420 l 1
 93 420 l 1x40
EndSplineSet
Validated: 9
EndChar

StartChar: u
Encoding: 117 117 82
Width: 751
Flags: W
VStem: 538 144<389.628 493.342>
LayerCount: 2
Back
Fore
SplineSet
456 144 m 1
 421.333333333 145.333333333 397.666666667 129.666666667 385 97 c 1
 213 97 l 1
 209 108.333333333 203 117.333333333 195 124 c 1
 360 513 l 1
 297 513 l 2
 273.666666667 513 255 502 241 480 c 1
 82 105 l 2
 78 95.6666666667 76 85 76 73 c 0
 76 52.3333333333 82.5 35 95.5 21 c 0
 108.5 7 125.333333333 0 146 0 c 2
 448 0 l 2
 482.666666667 0 507.333333333 17.6666666667 522 53 c 2
 670 403 l 1
 678 414.333333333 682 427.666666667 682 443 c 0
 682 463 675 480 661 494 c 0
 647 508 630 515 610 515 c 256
 590 515 573 508 559 494 c 0
 545 480 538 463 538 443 c 0
 538 420.333333333 545.333333333 402.333333333 560 389 c 1
 456 144 l 1
EndSplineSet
Validated: 41
EndChar

StartChar: v
Encoding: 118 118 83
Width: 612
Flags: W
HStem: 0 98<181 258.43> 494 20G<83 165.667 461 481>
VStem: 83 145<389.258 492.496> 83 98<98 385.82> 398 145<391.383 492.342>
LayerCount: 2
Back
Fore
SplineSet
535 410 m 2xd8
 381 48 l 2
 367.666666667 16 344 0 310 0 c 2
 83 0 l 1
 83 514 l 1xd8
 156 514 l 2
 175.333333333 514 192.166666667 506.833333333 206.5 492.5 c 0
 220.833333333 478.166666667 228 461.333333333 228 442 c 0xe8
 228 408.666666667 212.333333333 386 181 374 c 1
 181 98 l 1
 247 98 l 1
 258.333333333 128.666666667 281 144 315 144 c 1
 421 390 l 1
 405.666666667 404.666666667 398 422 398 442 c 256
 398 462 405.166666667 479 419.5 493 c 0
 433.833333333 507 451 514 471 514 c 256
 491 514 508 507 522 493 c 0
 536 479 543 462 543 442 c 0
 543 433.333333333 540.333333333 422.666666667 535 410 c 2xd8
EndSplineSet
Validated: 1
EndChar

StartChar: w
Encoding: 119 119 84
Width: 851
Flags: W
HStem: 0 144<235.945 290 500.945 555>
VStem: 83 145<389.258 492.496> 373 145<391.383 492.342> 638 145<393.516 492.342>
LayerCount: 2
Back
Fore
SplineSet
550 0 m 2
 584 0 607.666666667 16 621 48 c 2
 769 399 l 2
 778.333333333 421 783 435.333333333 783 442 c 0
 783 462 776 479 762 493 c 0
 748 507 731 514 711 514 c 256
 691 514 673.833333333 507 659.5 493 c 0
 645.166666667 479 638 462 638 442 c 256
 638 422 645.666666667 404.666666667 661 390 c 1
 555 144 l 1
 521 144 498.333333333 128.666666667 487 98 c 1
 378 98 l 1
 500 395 l 2
 512 424.333333333 518 440 518 442 c 0
 518 462 511 479 497 493 c 0
 483 507 466 514 446 514 c 256
 426 514 408.833333333 507 394.5 493 c 0
 380.166666667 479 373 462 373 442 c 256
 373 422 380.666666667 404.666666667 396 390 c 1
 290 144 l 1
 256 144 233.333333333 128.666666667 222 98 c 1
 181 98 l 1
 181 374 l 1
 212.333333333 386 228 408.666666667 228 442 c 0
 228 461.333333333 220.833333333 478.166666667 206.5 492.5 c 0
 192.166666667 506.833333333 175.333333333 514 156 514 c 2
 83 514 l 1
 83 0 l 1
 550 0 l 2
EndSplineSet
Validated: 9
EndChar

StartChar: x
Encoding: 120 120 85
Width: 757
Flags: W
HStem: 210 97<278 295 444 474> 502 20G<205 319.558 567.464 623.407>
LayerCount: 2
Back
Fore
SplineSet
205 522 m 1
 311 522 l 1
 403 307 l 1
 474 307 l 1
 576 546 l 1
 640 519 l 2
 669.333333333 506.333333333 684 484.333333333 684 453 c 0
 684 443.666666667 682 434.333333333 678 425 c 0
 665.333333333 395 643 380.333333333 611 381 c 1
 538 210 l 1
 444 210 l 1
 535 -1 l 1
 427 0 l 1
 337 210 l 1
 278 210 l 1
 177 -25 l 1
 112 3 l 2
 82.6666666667 15.6666666667 68 37.6666666667 68 69 c 0
 68 78.3333333333 70 87.6666666667 74 97 c 0
 86.6666666667 127.666666667 109.333333333 142.333333333 142 141 c 1
 213 307 l 1
 295 307 l 1
 205 522 l 1
EndSplineSet
Validated: 33
EndChar

StartChar: y
Encoding: 121 121 86
Width: 581
Flags: W
HStem: 502 20G<30 144.558 391.464 448.148>
LayerCount: 2
Back
Fore
SplineSet
30 522 m 1
 136 522 l 1
 228 307 l 1
 298 307 l 1
 400 546 l 1
 465 519 l 2
 494.333333333 507 509 485 509 453 c 0
 509 443.666666667 507 434.333333333 503 425 c 0
 490.333333333 395 467.666666667 380.333333333 435 381 c 1
 363 210 l 1
 269 210 l 1
 342 41 l 1
 174 -348 l 1
 85 -311 l 1
 229 44 l 1
 30 522 l 1
43 -302 m 256
 43 -282 50 -265 64 -251 c 0
 78 -237 95 -230 115 -230 c 256
 135 -230 152 -237 166 -251 c 0
 180 -265 187 -282 187 -302 c 256
 187 -322 180 -339 166 -353 c 0
 152 -367 135 -374 115 -374 c 256
 95 -374 78 -367 64 -353 c 0
 50 -339 43 -322 43 -302 c 256
EndSplineSet
Validated: 37
EndChar

StartChar: z
Encoding: 122 122 87
Width: 588
Flags: W
HStem: 0 142<310.277 413.342> 370 143<87.6584 192.055>
LayerCount: 2
Back
Fore
SplineSet
435 0 m 1
 435 70 l 2
 435 90 428 107 414 121 c 0
 400 135 383 142 363 142 c 0
 330.333333333 142 308 127 296 97 c 1
 157 97 l 1
 153.666666667 105.666666667 148.333333333 114 141 122 c 1
 180 214 l 1
 428 215 l 1
 514 417 l 2
 516.666666667 423 518 431 518 441 c 0
 518 461 511 478 497 492 c 0
 483 506 466 513 446 513 c 2
 138 513 l 2
 118 513 101 506.166666667 87 492.5 c 0
 73 478.833333333 66 462 66 442 c 256
 66 422 73 405 87 391 c 0
 101 377 118 370 138 370 c 0
 172 370 194.666666667 385 206 415 c 1
 379 415 l 1
 383 404.333333333 389 395.333333333 397 388 c 1
 364 311 l 1
 116 311 l 1
 28 103 l 2
 23.3333333333 91.6666666667 21 80.3333333333 21 69 c 0
 21 49 27.3333333333 32.5 40 19.5 c 0
 52.6666666667 6.5 69 0 89 0 c 2
 435 0 l 1
EndSplineSet
Validated: 9
EndChar

